<svg width="220" height="27" fill="none" xmlns="http://www.w3.org/2000/svg"><path d="M15.176 22.3H4.578v-5.766h10.598c2.649 0 4.002 1.295 4.002 2.972 0 1.617-1.324 2.794-4.002 2.794zm-.344-8.854H4.578V8.59h10.254c2.79 0 3.886 1.006 3.886 2.384 0 1.264-1.268 2.472-3.886 2.472zm2.707 1.47c4.465-.148 6.077-2.413 6.077-4.883-.003-2.708-2.105-4.944-7.231-4.944H0v20.653h16.874c4.204 0 7.345-1.793 7.345-5.648 0-2.736-1.758-5.06-6.683-5.177h.003zM28.642 5.09v20.653h4.585V5.09h-4.585zm23.874 3.913h10.091V5.09H37.87v3.913h10.079v16.74h4.578l-.01-16.74zM67.254 5.09v20.653h4.578v-8.047h10.743v-3.397H71.832V8.65h17.453V5.09H67.254zm26.97 0v20.653h4.578V5.09h-4.578zm13.838 5.03l15.173 15.621h5.184V5.09H123.9v14.886L109.327 5.09h-5.816v20.654h4.551V10.118zm25.068-5.03v20.653h22.397v-3.47h-17.819v-5.678h10.684v-3.206h-10.684V8.65h17.824V5.09H133.13zm54.049 0h-6.047l-7.716 7.268-7.662-7.268h-6.134l10.771 10.18-11.174 10.473h6.049l8.091-7.619 8.063 7.62h6.153L176.381 15.24l10.798-10.15z" fill="#fff"/><path d="M218.824 1.066c-.091-.04-9.533-1.353-18.866 4.778-5.794 3.815-6.562 9.395-6.296 13.116 13.574-1.534 24.854-17.45 25.162-17.894zm-24.241 22.029c1.166 2.097 9.985 6.852 17.792.294 7.807-6.558 7.153-18.49 6.449-22.323-.247.556-8.77 19.627-24.241 22.026" fill="#8CD867"/><path d="M218.824 1.066c-.091-.038-9.533-1.353-18.866 4.778-5.794 3.815-6.562 9.395-6.296 13.114 13.574-1.531 24.854-17.447 25.162-17.892z" fill="#54B361"/></svg>