<svg xmlns="http://www.w3.org/2000/svg" xmlns:xlink="http://www.w3.org/1999/xlink" viewBox="0 0 100 100"><style>.st3{fill:#fff}.st17{fill:#2b1284}.st18{fill:#76f6be}</style><g id="Layer_1"><linearGradient id="SVGID_1_" gradientUnits="userSpaceOnUse" x1="47.917" y1="70.061" x2="47.917" y2="46.952"><stop offset="0" stop-color="#6400fd"/><stop offset=".281" stop-color="#7d29fe"/><stop offset=".77" stop-color="#a76cff"/><stop offset=".999" stop-color="#b786ff"/></linearGradient><path d="M22.98 70.06s7.02-5.6 10.47-7.12c2.44-1.07 12.97 2.82 16.69 2.05s25.63-8.37 25.63-8.37.25-.76-.09-1.46-1.16-1.17-1.16-1.17l5.42-2.17s-.21-1.46-1.08-2.04c-.87-.59-1.92-.34-2.44-.23-.52.11-.68-.23-.68-.23s-.44-1.17-1.24-1.48c-.8-.3-1.74-.14-2.86.14-1.12.29-3.41 1.02-3.41 1.02s-.59-1.33-1.12-1.73c-.53-.39-1.62-.46-2.83 0s-15.16 6.91-15.16 6.91-4.56-1.9-4.97-2.11-4.1-1.9-5.79-2.47c-1.68-.57-5.41-1.57-9.77.68-2.13 1.1-7.57 5.58-7.92 6.03-.36.45-4.79 4.07-4.79 4.07l7.1 9.68z" fill="url(#SVGID_1_)"/><image width="313" height="281" xlink:href="FD3B684716060CD6.png" transform="matrix(.24 0 0 .24 9.85 2.553)" overflow="visible" opacity=".6"/><path class="st3" d="M49.86 42.47h.58l7.08-6.03-3.85-5.93-2.24 2.85 2.2 3.13zM40.9 36.49l2.18-3.13-2.22-2.85L37 36.44l7.07 6.03h.6z"/><path class="st3" d="M47.26 29.77l-4.91 6.72 3.33 5.98h3.16l3.34-5.98z"/><path class="st17" d="M16.78 33.89c-.71-.71-.71-1.87 0-2.58s1.87-.71 2.58 0 .71 1.87 0 2.58c-.72.71-1.87.71-2.58 0zM36.49 79.1a2.607 2.607 0 010-3.69 2.607 2.607 0 013.69 0 2.607 2.607 0 010 3.69c-1.02 1.01-2.68 1.01-3.69 0z"/><path class="st18" d="M58.52 73.43a3.392 3.392 0 010-4.79 3.392 3.392 0 014.79 0 3.392 3.392 0 010 4.79 3.392 3.392 0 01-4.79 0zM36.13 23.48c-.66-.66-.66-1.74 0-2.4.66-.66 1.73-.66 2.4 0 .66.66.66 1.73 0 2.4-.66.66-1.74.66-2.4 0z"/><path class="st17" d="M66.83 31.72c-.71-.71-.71-1.87 0-2.58s1.87-.71 2.58 0 .71 1.87 0 2.58c-.72.71-1.87.71-2.58 0z"/></g></svg>