<?xml version="1.0" encoding="utf-8"?>
<!-- Generator: Adobe Illustrator 23.0.6, SVG Export Plug-In . SVG Version: 6.00 Build 0)  -->
<svg version="1.1" xmlns="http://www.w3.org/2000/svg" xmlns:xlink="http://www.w3.org/1999/xlink" x="0px" y="0px"
	 viewBox="0 0 100 100" style="enable-background:new 0 0 100 100;" xml:space="preserve">
<style type="text/css">
	.st0{display:none;}
	.st1{display:inline;fill:#6326FF;}
	.st2{display:inline;fill:#3E3088;}
	.st3{fill:#FFFFFF;}
	.st4{fill:none;stroke:#FFFFFF;stroke-miterlimit:10;}
	.st5{fill:#D8D8D8;}
	.st6{fill:none;stroke:#D8D8D8;stroke-miterlimit:10;}
	.st7{fill:url(#SVGID_1_);}
	.st8{fill:#3E3088;}
	.st9{fill:url(#SVGID_2_);}
	.st10{fill:url(#SVGID_3_);}
	.st11{fill:#6425FF;}
	.st12{fill:#222432;}
	.st13{fill:url(#SVGID_6_);}
	.st14{fill:url(#SVGID_9_);}
	.st15{fill:url(#SVGID_10_);}
	.st16{fill:url(#SVGID_11_);}
	.st17{fill:#2B1284;}
	.st18{fill:#76F6BE;}
	.st19{fill:url(#SVGID_14_);}
	.st20{clip-path:url(#SVGID_16_);}
	.st21{clip-path:url(#SVGID_18_);}
</style>
<g id="Background" class="st0">
	<rect class="st1" width="100" height="100"/>
</g>
<g id="Layer_1">
	<g>
		<linearGradient id="SVGID_1_" gradientUnits="userSpaceOnUse" x1="47.9169" y1="70.0609" x2="47.9169" y2="46.9521">
			<stop  offset="0" style="stop-color:#6400FD"/>
			<stop  offset="0.2811" style="stop-color:#7D29FE"/>
			<stop  offset="0.7696" style="stop-color:#A76CFF"/>
			<stop  offset="0.9992" style="stop-color:#B786FF"/>
		</linearGradient>
		<path class="st7" d="M22.98,70.06c0,0,7.02-5.6,10.47-7.12c2.44-1.07,12.97,2.82,16.69,2.05s25.63-8.37,25.63-8.37
			s0.25-0.76-0.09-1.46s-1.16-1.17-1.16-1.17l5.42-2.17c0,0-0.21-1.46-1.08-2.04c-0.87-0.59-1.92-0.34-2.44-0.23
			c-0.52,0.11-0.68-0.23-0.68-0.23s-0.44-1.17-1.24-1.48c-0.8-0.3-1.74-0.14-2.86,0.14C70.52,48.27,68.23,49,68.23,49
			s-0.59-1.33-1.12-1.73c-0.53-0.39-1.62-0.46-2.83,0c-1.21,0.46-15.16,6.91-15.16,6.91s-4.56-1.9-4.97-2.11s-4.1-1.9-5.79-2.47
			c-1.68-0.57-5.41-1.57-9.77,0.68c-2.13,1.1-7.57,5.58-7.92,6.03c-0.36,0.45-4.79,4.07-4.79,4.07L22.98,70.06z"/>
	</g>
	<g>
		
			<image style="overflow:visible;opacity:0.6;" width="313" height="281" xlink:href="FD3B684716060CD6.png"  transform="matrix(0.24 0 0 0.24 9.8491 2.5526)">
		</image>
		<g>
			<g>
				<polygon class="st3" points="49.86,42.47 50.44,42.47 57.52,36.44 53.67,30.51 51.43,33.36 53.63,36.49 				"/>
				<polygon class="st3" points="40.9,36.49 43.08,33.36 40.86,30.51 37,36.44 44.07,42.47 44.67,42.47 				"/>
				<polygon class="st3" points="47.26,29.77 42.35,36.49 45.68,42.47 47.26,42.47 48.84,42.47 52.18,36.49 				"/>
			</g>
		</g>
	</g>
	<path class="st17" d="M16.78,33.89c-0.71-0.71-0.71-1.87,0-2.58c0.71-0.71,1.87-0.71,2.58,0c0.71,0.71,0.71,1.87,0,2.58
		C18.64,34.6,17.49,34.6,16.78,33.89z"/>
	<path class="st17" d="M36.49,79.1c-1.02-1.02-1.02-2.67,0-3.69c1.02-1.02,2.67-1.02,3.69,0c1.02,1.02,1.02,2.67,0,3.69
		C39.16,80.11,37.5,80.11,36.49,79.1z"/>
	<path class="st18" d="M58.52,73.43c-1.32-1.32-1.32-3.47,0-4.79c1.32-1.32,3.47-1.32,4.79,0c1.32,1.32,1.32,3.47,0,4.79
		C61.99,74.75,59.84,74.75,58.52,73.43z"/>
	<path class="st18" d="M36.13,23.48c-0.66-0.66-0.66-1.74,0-2.4c0.66-0.66,1.73-0.66,2.4,0c0.66,0.66,0.66,1.73,0,2.4
		C37.87,24.14,36.79,24.14,36.13,23.48z"/>
	<path class="st17" d="M66.83,31.72c-0.71-0.71-0.71-1.87,0-2.58c0.71-0.71,1.87-0.71,2.58,0c0.71,0.71,0.71,1.87,0,2.58
		C68.69,32.43,67.54,32.43,66.83,31.72z"/>
</g>
</svg>
