<svg width="100" height="100" fill="none" xmlns="http://www.w3.org/2000/svg"><path d="M23.1 69.475s7.02-5.6 10.47-7.12c2.44-1.07 12.97 2.82 16.69 2.05 3.72-.77 25.63-8.37 25.63-8.37s.25-.76-.09-1.46c-.34-.7-1.16-1.17-1.16-1.17l5.42-2.17s-.21-1.46-1.08-2.04c-.87-.59-1.92-.34-2.44-.23-.52.11-.68-.23-.68-.23s-.44-1.17-1.24-1.48c-.8-.3-1.74-.14-2.86.14-1.12.29-3.41 1.02-3.41 1.02s-.59-1.33-1.12-1.73c-.53-.39-1.62-.46-2.83 0s-15.16 6.91-15.16 6.91-4.56-1.9-4.97-2.11c-.41-.21-4.1-1.9-5.79-2.47-1.68-.57-5.41-1.57-9.77.68-2.13 1.1-7.57 5.58-7.92 6.03-.36.45-4.79 4.07-4.79 4.07l7.1 9.68z" fill="url(#paint0_linear)"/><path d="M16.9 33.305c-.71-.71-.71-1.87 0-2.58s1.87-.71 2.58 0 .71 1.87 0 2.58c-.72.71-1.87.71-2.58 0zM36.61 78.515a2.607 2.607 0 010-3.69 2.607 2.607 0 013.69 0 2.607 2.607 0 010 3.69c-1.02 1.01-2.68 1.01-3.69 0z" fill="#2B1284"/><path d="M58.64 72.845a3.392 3.392 0 010-4.79 3.392 3.392 0 014.79 0 3.392 3.392 0 010 4.79 3.392 3.392 0 01-4.79 0zM36.25 22.895c-.66-.66-.66-1.74 0-2.4.66-.66 1.73-.66 2.4 0 .66.66.66 1.73 0 2.4-.66.66-1.74.66-2.4 0z" fill="#76F6BE"/><path d="M66.95 31.135c-.71-.71-.71-1.87 0-2.58s1.87-.71 2.58 0 .71 1.87 0 2.58c-.72.71-1.87.71-2.58 0z" fill="#2B1284"/><path d="M40.8 36.3c-.4-.4-.4-1 0-1.4l3.9-3.9-1.5-1.5c-.4-.4-1-.4-1.4 0L37.3 34c-.4.4-.4 1 0 1.4l4.7 4.7c.4.4 1 .4 1.4 0l.6-.6-3.2-3.2z" fill="#fff"/><path d="M49.7 26.2l7.5 7.5c.4.4.4 1 0 1.4l-7.1 7.1c-.4.4-1 .4-1.4 0l-7.5-7.5c-.4-.4-.4-1 0-1.4l7.1-7.1c.4-.4 1-.4 1.4 0z" fill="#fff"/><defs><linearGradient id="paint0_linear" x1="48.037" y1="69.476" x2="48.037" y2="46.367" gradientUnits="userSpaceOnUse"><stop stop-color="#6400FD"/><stop offset=".281" stop-color="#7D29FE"/><stop offset=".77" stop-color="#A76CFF"/><stop offset=".999" stop-color="#B786FF"/></linearGradient></defs></svg>