<svg xmlns="http://www.w3.org/2000/svg" viewBox="0 0 100 100"><style>.st5{fill:#d8d8d8}</style><g id="Layer_1"><path class="st5" d="M22.98 70.06s7.02-5.6 10.47-7.12c2.44-1.07 12.97 2.82 16.69 2.05s25.63-8.37 25.63-8.37.25-.76-.09-1.46-1.16-1.17-1.16-1.17l5.42-2.17s-.21-1.46-1.08-2.04c-.87-.59-1.92-.34-2.44-.23-.52.11-.68-.23-.68-.23s-.44-1.17-1.24-1.48c-.8-.3-1.74-.14-2.86.14-1.12.29-3.41 1.02-3.41 1.02s-.59-1.33-1.12-1.73c-.53-.39-1.62-.46-2.83 0s-15.16 6.91-15.16 6.91-4.56-1.9-4.97-2.11-4.1-1.9-5.79-2.47c-1.68-.57-5.41-1.57-9.77.68-2.13 1.1-7.57 5.58-7.92 6.03-.36.45-4.79 4.07-4.79 4.07l7.1 9.68zm26.88-27.59h.58l7.08-6.03-3.85-5.93-2.24 2.85 2.2 3.13zm-8.96-5.98l2.18-3.13-2.22-2.85L37 36.44l7.07 6.03h.6z"/><path class="st5" d="M47.26 29.77l-4.91 6.72 3.33 5.98h3.16l3.34-5.98z"/></g></svg>