<?xml version="1.0" encoding="utf-8"?>
<!-- Generator: Adobe Illustrator 23.0.6, SVG Export Plug-In . SVG Version: 6.00 Build 0)  -->
<svg version="1.1" xmlns="http://www.w3.org/2000/svg" xmlns:xlink="http://www.w3.org/1999/xlink" x="0px" y="0px"
	 viewBox="0 0 100 100" style="enable-background:new 0 0 100 100;" xml:space="preserve">
<style type="text/css">
	.st0{display:none;}
	.st1{display:inline;fill:#6326FF;}
	.st2{display:inline;fill:#3E3088;}
	.st3{fill:#FFFFFF;}
	.st4{fill:none;stroke:#FFFFFF;stroke-miterlimit:10;}
	.st5{fill:#D8D8D8;}
	.st6{fill:none;stroke:#D8D8D8;stroke-miterlimit:10;}
	.st7{fill:url(#SVGID_1_);}
	.st8{fill:#3E3088;}
	.st9{fill:url(#SVGID_2_);}
	.st10{fill:url(#SVGID_3_);}
	.st11{fill:#6425FF;}
	.st12{fill:#222432;}
	.st13{fill:url(#SVGID_6_);}
	.st14{fill:url(#SVGID_9_);}
	.st15{fill:url(#SVGID_10_);}
	.st16{fill:url(#SVGID_11_);}
	.st17{fill:#2B1284;}
	.st18{fill:#76F6BE;}
	.st19{fill:url(#SVGID_14_);}
	.st20{clip-path:url(#SVGID_16_);}
	.st21{clip-path:url(#SVGID_18_);}
</style>
<g id="Background" class="st0">
	<rect class="st2" width="100" height="100"/>
</g>
<g id="Layer_1">
	<g>
		<path class="st5" d="M22.98,70.06c0,0,7.02-5.6,10.47-7.12c2.44-1.07,12.97,2.82,16.69,2.05s25.63-8.37,25.63-8.37
			s0.25-0.76-0.09-1.46s-1.16-1.17-1.16-1.17l5.42-2.17c0,0-0.21-1.46-1.08-2.04c-0.87-0.59-1.92-0.34-2.44-0.23
			c-0.52,0.11-0.68-0.23-0.68-0.23s-0.44-1.17-1.24-1.48c-0.8-0.3-1.74-0.14-2.86,0.14C70.52,48.27,68.23,49,68.23,49
			s-0.59-1.33-1.12-1.73c-0.53-0.39-1.62-0.46-2.83,0c-1.21,0.46-15.16,6.91-15.16,6.91s-4.56-1.9-4.97-2.11s-4.1-1.9-5.79-2.47
			c-1.68-0.57-5.41-1.57-9.77,0.68c-2.13,1.1-7.57,5.58-7.92,6.03c-0.36,0.45-4.79,4.07-4.79,4.07L22.98,70.06z"/>
	</g>
	<g>
		<g>
			<polygon class="st5" points="49.86,42.47 50.44,42.47 57.52,36.44 53.67,30.51 51.43,33.36 53.63,36.49 			"/>
			<polygon class="st5" points="40.9,36.49 43.08,33.36 40.86,30.51 37,36.44 44.07,42.47 44.67,42.47 			"/>
			<polygon class="st5" points="47.26,29.77 42.35,36.49 45.68,42.47 47.26,42.47 48.84,42.47 52.18,36.49 			"/>
		</g>
	</g>
</g>
</svg>
