<svg viewBox="0 0 100 100" xmlns="http://www.w3.org/2000/svg"><linearGradient id="a" gradientTransform="matrix(1 0 0 -1 0 102)" gradientUnits="userSpaceOnUse" x1="47.91" x2="47.91" y1="55.049" y2="31.94"><stop offset="0" stop-color="#fff"/><stop offset=".063" stop-color="#eaeaf4"/><stop offset=".247" stop-color="#b1b2d6"/><stop offset=".425" stop-color="#8284bd"/><stop offset=".594" stop-color="#5e60aa"/><stop offset=".75" stop-color="#43469c"/><stop offset=".89" stop-color="#343694"/><stop offset="1" stop-color="#2e3191"/></linearGradient><path d="M40.8 36.3c-.4-.4-.4-1 0-1.4l3.9-3.9-1.5-1.5c-.4-.4-1-.4-1.4 0L37.3 34c-.4.4-.4 1 0 1.4l4.7 4.7c.4.4 1 .4 1.4 0l.6-.6z" fill="#fff"/><path d="M49.7 26.2l7.5 7.5c.4.4.4 1 0 1.4l-7.1 7.1c-.4.4-1 .4-1.4 0l-7.5-7.5c-.4-.4-.4-1 0-1.4l7.1-7.1c.4-.4 1-.4 1.4 0z" fill="#fff"/><path d="M23 70.1s7-5.6 10.5-7.1c2.4-1.1 13 2.8 16.7 2s25.6-8.4 25.6-8.4.2-.8-.1-1.5-1.2-1.1-1.2-1.1l5.4-2.2s-.2-1.5-1.1-2c-.9-.6-1.9-.3-2.4-.2s-.7-.2-.7-.2-.4-1.2-1.2-1.5-1.7-.1-2.9.1c-1.1.3-3.4 1-3.4 1s-.6-1.3-1.1-1.7-1.6-.5-2.8 0-15.2 6.9-15.2 6.9-4.6-1.9-5-2.1-4.1-1.9-5.8-2.5-5.4-1.6-9.8.7c-2.1 1.1-7.6 5.6-7.9 6-.4.5-4.8 4.1-4.8 4.1z" fill="url(#a)"/></svg>