<svg xmlns="http://www.w3.org/2000/svg" viewBox="0 0 100 100"><style>.st3{fill:#fff}.st4{fill:none;stroke:#fff;stroke-miterlimit:10}.st17{fill:#2b1284}</style><g id="Layer_1"><circle class="st4" cx="64.64" cy="69.34" r="14.74"/><path class="st3" d="M74.42 68.55l-3.56-3.97s-2.39-3.15-6.3-3.15c-4.38 0-7.94 3.52-7.96 7.89-.01 4.36 3.54 7.93 7.89 7.94a7.92 7.92 0 007.24-4.65c-.92-.52-1.46-.77-2.31-1.34-.09-.06-.07-.22.11-.21h2.72c.12-.57.19-1.15.19-1.76h1.65c.39-.01.59-.47.33-.75zm-5.28-1.51c-.35 0-.63-.28-.63-.63s.28-.63.63-.63.63.28.63.63-.28.63-.63.63z"/><linearGradient id="SVGID_1_" gradientUnits="userSpaceOnUse" x1="18.138" y1="31.936" x2="47.623" y2="31.936"><stop offset="0" stop-color="#6400fd"/><stop offset=".281" stop-color="#7d29fe"/><stop offset=".77" stop-color="#a76cff"/><stop offset=".999" stop-color="#b786ff"/></linearGradient><circle cx="32.88" cy="31.94" r="14.74" fill="url(#SVGID_1_)"/><path class="st3" d="M42.66 31.15l-3.56-3.97s-2.39-3.15-6.3-3.15c-4.38 0-7.94 3.52-7.96 7.89-.01 4.36 3.54 7.93 7.89 7.94a7.92 7.92 0 007.24-4.65c-.92-.52-1.46-.77-2.31-1.34-.09-.06-.07-.22.11-.21h2.72c.12-.57.19-1.15.19-1.76h1.65c.38-.01.59-.47.33-.75zm-5.28-1.51c-.35 0-.63-.28-.63-.63s.28-.63.63-.63.63.28.63.63-.29.63-.63.63z"/><path class="st4" d="M55.06 58.65L42.03 44.13"/><path class="st17" d="M51.27 19.3a1.82 1.82 0 012.47-.74c.89.48 1.22 1.59.74 2.47a1.82 1.82 0 01-2.47.74 1.818 1.818 0 01-.74-2.47zM12.34 45.5a2.598 2.598 0 013.53-1.05c1.27.69 1.74 2.27 1.05 3.53a2.598 2.598 0 01-3.53 1.05 2.593 2.593 0 01-1.05-3.53z"/><path d="M24.05 65a3.384 3.384 0 014.59-1.37c1.65.89 2.26 2.95 1.37 4.59A3.388 3.388 0 0124.05 65zm51.42-29.9a1.695 1.695 0 112.98 1.62 1.695 1.695 0 11-2.98-1.62z" fill="#76f6be"/><path class="st17" d="M60.99 53.01a3.345 3.345 0 014.53-1.35c1.62.88 2.23 2.91 1.35 4.53a3.345 3.345 0 01-4.53 1.35 3.337 3.337 0 01-1.35-4.53z"/></g></svg>