<?xml version="1.0" encoding="utf-8"?>
<!-- Generator: Adobe Illustrator 23.0.6, SVG Export Plug-In . SVG Version: 6.00 Build 0)  -->
<svg version="1.1" xmlns="http://www.w3.org/2000/svg" xmlns:xlink="http://www.w3.org/1999/xlink" x="0px" y="0px"
	 viewBox="0 0 100 100" style="enable-background:new 0 0 100 100;" xml:space="preserve">
<style type="text/css">
	.st0{display:none;}
	.st1{display:inline;fill:#6326FF;}
	.st2{display:inline;fill:#3E3088;}
	.st3{fill:#FFFFFF;}
	.st4{fill:none;stroke:#FFFFFF;stroke-miterlimit:10;}
	.st5{fill:#D8D8D8;}
	.st6{fill:none;stroke:#D8D8D8;stroke-miterlimit:10;}
	.st7{fill:url(#SVGID_1_);}
	.st8{fill:#3E3088;}
	.st9{fill:url(#SVGID_2_);}
	.st10{fill:url(#SVGID_3_);}
	.st11{fill:#6425FF;}
	.st12{fill:#222432;}
	.st13{fill:url(#SVGID_6_);}
	.st14{fill:url(#SVGID_9_);}
	.st15{fill:url(#SVGID_10_);}
	.st16{fill:url(#SVGID_11_);}
	.st17{fill:#2B1284;}
	.st18{fill:#76F6BE;}
	.st19{fill:url(#SVGID_14_);}
	.st20{clip-path:url(#SVGID_16_);}
	.st21{clip-path:url(#SVGID_18_);}
</style>
<g id="Background" class="st0">
	<rect x="-0.1" class="st1" width="100" height="100"/>
</g>
<g id="Layer_1">
	<circle class="st4" cx="64.64" cy="69.34" r="14.74"/>
	<path class="st3" d="M74.42,68.55l-3.56-3.97c0,0-2.39-3.15-6.3-3.15c-4.38,0-7.94,3.52-7.96,7.89c-0.01,4.36,3.54,7.93,7.89,7.94
		c3.22,0.01,5.99-1.9,7.24-4.65c-0.92-0.52-1.46-0.77-2.31-1.34c-0.09-0.06-0.07-0.22,0.11-0.21h2.72c0.12-0.57,0.19-1.15,0.19-1.76
		h1.65C74.48,69.29,74.68,68.83,74.42,68.55z M69.14,67.04c-0.35,0-0.63-0.28-0.63-0.63c0-0.35,0.28-0.63,0.63-0.63
		c0.35,0,0.63,0.28,0.63,0.63C69.77,66.76,69.49,67.04,69.14,67.04z"/>
	<linearGradient id="SVGID_1_" gradientUnits="userSpaceOnUse" x1="18.1378" y1="31.9361" x2="47.6232" y2="31.9361">
		<stop  offset="0" style="stop-color:#6400FD"/>
		<stop  offset="0.2811" style="stop-color:#7D29FE"/>
		<stop  offset="0.7696" style="stop-color:#A76CFF"/>
		<stop  offset="0.9992" style="stop-color:#B786FF"/>
	</linearGradient>
	<circle class="st7" cx="32.88" cy="31.94" r="14.74"/>
	<path class="st3" d="M42.66,31.15l-3.56-3.97c0,0-2.39-3.15-6.3-3.15c-4.38,0-7.94,3.52-7.96,7.89c-0.01,4.36,3.54,7.93,7.89,7.94
		c3.22,0.01,5.99-1.9,7.24-4.65c-0.92-0.52-1.46-0.77-2.31-1.34c-0.09-0.06-0.07-0.22,0.11-0.21h2.72c0.12-0.57,0.19-1.15,0.19-1.76
		h1.65C42.71,31.89,42.92,31.43,42.66,31.15z M37.38,29.64c-0.35,0-0.63-0.28-0.63-0.63s0.28-0.63,0.63-0.63
		c0.35,0,0.63,0.28,0.63,0.63S37.72,29.64,37.38,29.64z"/>
	<line class="st4" x1="55.06" y1="58.65" x2="42.03" y2="44.13"/>
	<path class="st17" d="M51.27,19.3c0.48-0.89,1.59-1.22,2.47-0.74c0.89,0.48,1.22,1.59,0.74,2.47c-0.48,0.89-1.59,1.22-2.47,0.74
		C51.12,21.29,50.79,20.19,51.27,19.3z"/>
	<path class="st17" d="M12.34,45.5c0.69-1.27,2.27-1.74,3.53-1.05c1.27,0.69,1.74,2.27,1.05,3.53c-0.69,1.27-2.27,1.74-3.53,1.05
		C12.12,48.35,11.65,46.77,12.34,45.5z"/>
	<path class="st18" d="M24.05,65c0.89-1.65,2.95-2.26,4.59-1.37c1.65,0.89,2.26,2.95,1.37,4.59c-0.89,1.65-2.95,2.26-4.59,1.37
		C23.78,68.71,23.16,66.65,24.05,65z"/>
	<path class="st18" d="M75.47,35.1c0.45-0.82,1.47-1.13,2.3-0.68c0.82,0.45,1.13,1.47,0.68,2.3c-0.45,0.82-1.47,1.13-2.3,0.68
		C75.33,36.96,75.03,35.93,75.47,35.1z"/>
	<path class="st17" d="M60.99,53.01c0.88-1.62,2.91-2.23,4.53-1.35c1.62,0.88,2.23,2.91,1.35,4.53c-0.88,1.62-2.91,2.23-4.53,1.35
		C60.71,56.66,60.11,54.63,60.99,53.01z"/>
</g>
</svg>
