<svg xmlns="http://www.w3.org/2000/svg" viewBox="0 0 100 100"><style>.st5{fill:#d8d8d8}.st6{fill:none;stroke:#d8d8d8;stroke-miterlimit:10}</style><g id="Layer_1"><circle class="st6" cx="64.64" cy="69.34" r="14.74"/><path class="st5" d="M74.42 68.55l-3.56-3.97s-2.39-3.15-6.3-3.15c-4.38 0-7.94 3.52-7.96 7.89-.01 4.36 3.54 7.93 7.89 7.94a7.92 7.92 0 007.24-4.65c-.92-.52-1.46-.77-2.31-1.34-.09-.06-.07-.22.11-.21h2.72c.12-.57.19-1.15.19-1.76h1.65c.39-.01.59-.47.33-.75zm-5.28-1.51c-.35 0-.63-.28-.63-.63s.28-.63.63-.63.63.28.63.63-.28.63-.63.63z"/><circle class="st5" cx="32.88" cy="31.94" r="14.74"/><path d="M42.66 31.15l-3.56-3.97s-2.39-3.15-6.3-3.15c-4.38 0-7.94 3.52-7.96 7.89-.01 4.36 3.54 7.93 7.89 7.94a7.92 7.92 0 007.24-4.65c-.92-.52-1.46-.77-2.31-1.34-.09-.06-.07-.22.11-.21h2.72c.12-.57.19-1.15.19-1.76h1.65c.38-.01.59-.47.33-.75zm-5.28-1.51c-.35 0-.63-.28-.63-.63s.28-.63.63-.63.63.28.63.63-.29.63-.63.63z" fill="#3e3088"/><path class="st6" d="M55.42 58.04l-13.74-15.3"/></g></svg>