<?xml version="1.0" encoding="utf-8"?>
<!-- Generator: Adobe Illustrator 23.0.6, SVG Export Plug-In . SVG Version: 6.00 Build 0)  -->
<svg version="1.1" xmlns="http://www.w3.org/2000/svg" xmlns:xlink="http://www.w3.org/1999/xlink" x="0px" y="0px"
	 viewBox="0 0 100 100" style="enable-background:new 0 0 100 100;" xml:space="preserve">
<style type="text/css">
	.st0{display:none;}
	.st1{display:inline;fill:#6326FF;}
	.st2{display:inline;fill:#3E3088;}
	.st3{fill:#FFFFFF;}
	.st4{fill:none;stroke:#FFFFFF;stroke-miterlimit:10;}
	.st5{fill:#D8D8D8;}
	.st6{fill:none;stroke:#D8D8D8;stroke-miterlimit:10;}
	.st7{fill:url(#SVGID_1_);}
	.st8{fill:#3E3088;}
	.st9{fill:url(#SVGID_2_);}
	.st10{fill:url(#SVGID_3_);}
	.st11{fill:#6425FF;}
	.st12{fill:#222432;}
	.st13{fill:url(#SVGID_6_);}
	.st14{fill:url(#SVGID_9_);}
	.st15{fill:url(#SVGID_10_);}
	.st16{fill:url(#SVGID_11_);}
	.st17{fill:#2B1284;}
	.st18{fill:#76F6BE;}
	.st19{fill:url(#SVGID_14_);}
	.st20{clip-path:url(#SVGID_16_);}
	.st21{clip-path:url(#SVGID_18_);}
</style>
<g id="Background" class="st0">
	<rect x="-0.1" class="st2" width="100" height="100"/>
</g>
<g id="Layer_1">
	<circle class="st6" cx="64.64" cy="69.34" r="14.74"/>
	<path class="st5" d="M74.42,68.55l-3.56-3.97c0,0-2.39-3.15-6.3-3.15c-4.38,0-7.94,3.52-7.96,7.89c-0.01,4.36,3.54,7.93,7.89,7.94
		c3.22,0.01,5.99-1.9,7.24-4.65c-0.92-0.52-1.46-0.77-2.31-1.34c-0.09-0.06-0.07-0.22,0.11-0.21h2.72c0.12-0.57,0.19-1.15,0.19-1.76
		h1.65C74.48,69.29,74.68,68.83,74.42,68.55z M69.14,67.04c-0.35,0-0.63-0.28-0.63-0.63c0-0.35,0.28-0.63,0.63-0.63
		c0.35,0,0.63,0.28,0.63,0.63C69.77,66.76,69.49,67.04,69.14,67.04z"/>
	<circle class="st5" cx="32.88" cy="31.94" r="14.74"/>
	<path class="st8" d="M42.66,31.15l-3.56-3.97c0,0-2.39-3.15-6.3-3.15c-4.38,0-7.94,3.52-7.96,7.89c-0.01,4.36,3.54,7.93,7.89,7.94
		c3.22,0.01,5.99-1.9,7.24-4.65c-0.92-0.52-1.46-0.77-2.31-1.34c-0.09-0.06-0.07-0.22,0.11-0.21h2.72c0.12-0.57,0.19-1.15,0.19-1.76
		h1.65C42.71,31.89,42.92,31.43,42.66,31.15z M37.38,29.64c-0.35,0-0.63-0.28-0.63-0.63s0.28-0.63,0.63-0.63
		c0.35,0,0.63,0.28,0.63,0.63S37.72,29.64,37.38,29.64z"/>
	<line class="st6" x1="55.42" y1="58.04" x2="41.68" y2="42.74"/>
</g>
</svg>
