<svg width="100" height="100" fill="none" xmlns="http://www.w3.org/2000/svg"><g clip-path="url(#clip0)"><path d="M64.64 84.08c8.14 0 14.74-6.6 14.74-14.74S72.78 54.6 64.64 54.6 49.9 61.2 49.9 69.34s6.6 14.74 14.74 14.74z" stroke="#fff" stroke-miterlimit="10"/><path d="M74.42 68.55l-3.56-3.97s-2.39-3.15-6.3-3.15c-4.38 0-7.94 3.52-7.96 7.89-.01 4.36 3.54 7.93 7.89 7.94a7.92 7.92 0 007.24-4.65c-.92-.52-1.46-.77-2.31-1.34-.09-.06-.07-.22.11-.21h2.72c.12-.57.19-1.15.19-1.76h1.65c.39-.01.59-.47.33-.75zm-5.28-1.51c-.35 0-.63-.28-.63-.63s.28-.63.63-.63.63.28.63.63-.28.63-.63.63z" fill="#fff"/><path d="M32.88 46.68c8.14 0 14.74-6.6 14.74-14.74S41.02 17.2 32.88 17.2s-14.74 6.6-14.74 14.74 6.6 14.74 14.74 14.74z" fill="url(#paint0_linear)"/><path d="M42.66 31.15l-3.56-3.97s-2.39-3.15-6.3-3.15c-4.38 0-7.94 3.52-7.96 7.89-.01 4.36 3.54 7.93 7.89 7.94a7.92 7.92 0 007.24-4.65c-.92-.52-1.46-.77-2.31-1.34-.09-.06-.07-.22.11-.21h2.72c.12-.57.19-1.15.19-1.76h1.65c.38-.01.59-.47.33-.75zm-5.28-1.51c-.35 0-.63-.28-.63-.63s.28-.63.63-.63.63.28.63.63-.29.63-.63.63z" fill="#fff"/><path d="M55.06 57.65L42.03 43.13" stroke="#fff" stroke-miterlimit="10"/></g><defs><linearGradient id="paint0_linear" x1="18.138" y1="31.936" x2="47.623" y2="31.936" gradientUnits="userSpaceOnUse"><stop stop-color="#2E3191"/><stop offset=".098" stop-color="#373A96"/><stop offset=".259" stop-color="#5052A3"/><stop offset=".462" stop-color="#7779B8"/><stop offset=".7" stop-color="#AFB0D5"/><stop offset=".964" stop-color="#F5F5FA"/><stop offset="1" stop-color="#fff"/></linearGradient><clipPath id="clip0"><path fill="#fff" d="M0 0h100v100H0z"/></clipPath></defs></svg>