<svg width="128" height="40" viewBox="0 0 128 40" fill="none" xmlns="http://www.w3.org/2000/svg">
<path fill-rule="evenodd" clip-rule="evenodd" d="M18.0009 20.5789L25.7072 34.6126H27.472L18.8833 18.9868L26.7072 4.71722H24.9424L18.0009 17.3947L11.0594 4.71722H9.29458L17.1185 18.9868L8.52984 34.6126H10.2946L18.0009 20.5789ZM11.177 18.9868L0.764744 0H14.4713L18.0009 6.42721L21.5305 0H35.2959L24.8836 18.9868L36.0606 39.3298H22.3541L18.0009 31.4874L13.7066 39.3298H0L11.177 18.9868Z" fill="#FCA060"/>
<path fill-rule="evenodd" clip-rule="evenodd" d="M43.5898 28.3937V10.9098H48.4278C50.0666 10.9098 51.5267 11.0932 52.8081 11.4602C54.0895 11.8272 55.1704 12.3777 56.0509 13.1116C56.9313 13.8456 57.6025 14.7587 58.0645 15.8509C58.5265 16.9431 58.7575 18.2057 58.7575 19.6386C58.7575 21.0716 58.5265 22.3342 58.0645 23.4264C57.6025 24.5186 56.9313 25.4317 56.0509 26.1656C55.1704 26.8996 54.0895 27.4544 52.8081 27.8302C51.5267 28.2059 50.0666 28.3937 48.4278 28.3937H43.5898ZM49.16 23.4133C50.4676 23.4133 51.4788 23.1031 52.1936 22.4827C52.9084 21.8624 53.2658 20.9143 53.2658 19.6386C53.2658 18.3629 52.9084 17.4193 52.1936 16.8077C51.4788 16.196 50.4676 15.8902 49.16 15.8902V23.4133ZM60.1958 10.9098H70.4732V15.497H65.766V17.4368H70.3948V21.7881H65.766V23.8065H70.6563V28.3937H60.1958V10.9098ZM75.7558 19.3503L71.127 10.9098H77.2202L78.7893 13.767L80.3584 10.9098H86.4778L81.849 19.3503L86.8177 28.3937H80.7245L78.7893 24.9074L76.8803 28.3937H70.7871L75.7558 19.3503ZM87.0792 24.0162H92.6756V28.3937H87.0792V24.0162ZM99.5533 10.9098H103.738L110.354 28.3937H104.862L104.287 26.821H99.0042L98.4288 28.3937H92.9371L99.5533 10.9098ZM102.822 22.9677L101.645 19.9008L100.469 22.9677H102.822ZM121.86 16.8601C121.546 16.5805 121.154 16.3664 120.683 16.2179C120.213 16.0693 119.751 15.9951 119.297 15.9951C118.792 15.9951 118.33 16.0868 117.911 16.2703C117.493 16.4538 117.131 16.7072 116.826 17.0305C116.521 17.3538 116.281 17.7426 116.107 18.1969C115.933 18.6513 115.846 19.1406 115.846 19.6649C115.846 20.1891 115.941 20.6784 116.133 21.1328C116.325 21.5871 116.586 21.9759 116.918 22.2992C117.249 22.6225 117.637 22.8759 118.081 23.0594C118.526 23.2429 119.001 23.3346 119.507 23.3346C120.099 23.3346 120.64 23.208 121.128 22.9546C121.616 22.7012 122.035 22.356 122.383 21.9192H120.814V18.2494H127.535V24.0686C127.134 24.7851 126.655 25.436 126.097 26.0215C125.539 26.6069 124.916 27.1093 124.227 27.5287C123.538 27.9481 122.793 28.2714 121.991 28.4986C121.189 28.7258 120.361 28.8393 119.507 28.8393C118.251 28.8393 117.066 28.6034 115.95 28.1316C114.834 27.6598 113.862 27.0132 113.034 26.1918C112.206 25.3705 111.552 24.4006 111.073 23.2822C110.593 22.1638 110.354 20.958 110.354 19.6649C110.354 18.4066 110.58 17.2183 111.034 16.0999C111.487 14.9815 112.11 14.0072 112.904 13.1772C113.697 12.3471 114.638 11.6918 115.728 11.2112C116.817 10.7306 117.99 10.4904 119.245 10.4904C120.221 10.4904 121.067 10.5865 121.782 10.7787C122.497 10.9709 123.098 11.1894 123.586 11.434C124.162 11.7136 124.641 12.0194 125.025 12.3515L121.86 16.8601Z" fill="#FCA060"/>
</svg>
