<svg xmlns="http://www.w3.org/2000/svg" xmlns:xlink="http://www.w3.org/1999/xlink" viewBox="0 0 100 100"><style>.st4{fill:none;stroke:#fff;stroke-miterlimit:10}.st17{fill:#2b1284}.st18{fill:#76f6be}</style><g id="Layer_1"><image width="320" height="320" xlink:href="FD43D353D0146121.png" transform="matrix(.24 0 0 .24 .326 -5.075)" overflow="visible" opacity=".3"/><circle cx="38.67" cy="33.34" r="12.61" fill="#fff"/><linearGradient id="SVGID_1_" gradientUnits="userSpaceOnUse" x1="50" y1="63.551" x2="75.217" y2="63.551"><stop offset="0" stop-color="#6400fd"/><stop offset=".281" stop-color="#7d29fe"/><stop offset=".77" stop-color="#a76cff"/><stop offset=".999" stop-color="#b786ff"/></linearGradient><circle cx="62.61" cy="63.55" r="12.61" fill="url(#SVGID_1_)"/><path class="st4" d="M74.01 46.6c1.63-10.4-5.48-20.16-15.88-21.79M79 43.68l-2.53 1.82-2.53 1.82-1.96-2.43-1.96-2.42M26.96 51.66c-1.63 10.4 5.48 20.16 15.88 21.79"/><path class="st4" d="M21.96 54.58l2.53-1.82 2.53-1.82 1.96 2.43 1.96 2.42"/><path class="st17" d="M50.5 82.33c0 1.01-.82 1.82-1.83 1.82-1.01 0-1.83-.82-1.83-1.82 0-1.01.82-1.82 1.83-1.82 1.01-.01 1.83.81 1.83 1.82zM64.13 37.14c0 1.44-1.17 2.61-2.61 2.61s-2.61-1.17-2.61-2.61 1.17-2.61 2.61-2.61 2.61 1.17 2.61 2.61z"/><path class="st18" d="M61.52 17.07c0 1.87-1.52 3.39-3.39 3.39s-3.39-1.52-3.39-3.39 1.52-3.39 3.39-3.39 3.39 1.52 3.39 3.39zM73.41 73.86c0 1.87-1.52 3.39-3.39 3.39s-3.39-1.52-3.39-3.39 1.52-3.39 3.39-3.39c1.88 0 3.39 1.52 3.39 3.39z"/><path class="st17" d="M19.26 63.55c0 1.01-.82 1.82-1.83 1.82-1.01 0-1.83-.82-1.83-1.82 0-1.01.82-1.82 1.83-1.82 1.01 0 1.83.81 1.83 1.82z"/></g></svg>