<svg width="100" height="100" fill="none" xmlns="http://www.w3.org/2000/svg"><path d="M38.67 45.95c6.964 0 12.61-5.646 12.61-12.61 0-6.964-5.646-12.61-12.61-12.61-6.964 0-12.61 5.646-12.61 12.61 0 6.964 5.646 12.61 12.61 12.61z" fill="#fff"/><path d="M62.61 76.16c6.964 0 12.61-5.646 12.61-12.61 0-6.964-5.646-12.61-12.61-12.61-6.964 0-12.61 5.646-12.61 12.61 0 6.964 5.646 12.61 12.61 12.61z" fill="url(#paint0_linear)"/><path d="M74.01 46.6c1.63-10.4-5.48-20.16-15.88-21.79M79 43.68l-2.53 1.82-2.53 1.82-1.96-2.43-1.96-2.42M26.96 51.66c-1.63 10.4 5.48 20.16 15.88 21.79" stroke="#fff" stroke-miterlimit="10"/><path d="M21.96 54.58l2.53-1.82 2.53-1.82 1.96 2.43 1.96 2.42" stroke="#fff" stroke-miterlimit="10"/><defs><linearGradient id="paint0_linear" x1="50" y1="63.551" x2="75.217" y2="63.551" gradientUnits="userSpaceOnUse"><stop stop-color="#2E3191"/><stop offset=".098" stop-color="#373A96"/><stop offset=".259" stop-color="#5052A3"/><stop offset=".462" stop-color="#7779B8"/><stop offset=".7" stop-color="#AFB0D5"/><stop offset=".964" stop-color="#F5F5FA"/><stop offset="1" stop-color="#fff"/></linearGradient></defs></svg>