<?xml version="1.0" encoding="utf-8"?>
<!-- Generator: Adobe Illustrator 23.0.6, SVG Export Plug-In . SVG Version: 6.00 Build 0)  -->
<svg version="1.1" xmlns="http://www.w3.org/2000/svg" xmlns:xlink="http://www.w3.org/1999/xlink" x="0px" y="0px"
	 viewBox="0 0 100 100" style="enable-background:new 0 0 100 100;" xml:space="preserve">
<style type="text/css">
	.st0{display:none;}
	.st1{display:inline;fill:#6326FF;}
	.st2{display:inline;fill:#3E3088;}
	.st3{fill:#FFFFFF;}
	.st4{fill:none;stroke:#FFFFFF;stroke-miterlimit:10;}
	.st5{fill:#D8D8D8;}
	.st6{fill:none;stroke:#D8D8D8;stroke-miterlimit:10;}
	.st7{fill:url(#SVGID_1_);}
	.st8{fill:#3E3088;}
	.st9{fill:url(#SVGID_2_);}
	.st10{fill:url(#SVGID_3_);}
	.st11{fill:#6425FF;}
	.st12{fill:#222432;}
	.st13{fill:url(#SVGID_6_);}
	.st14{fill:url(#SVGID_9_);}
	.st15{fill:url(#SVGID_10_);}
	.st16{fill:url(#SVGID_11_);}
	.st17{fill:#2B1284;}
	.st18{fill:#76F6BE;}
	.st19{fill:url(#SVGID_14_);}
	.st20{clip-path:url(#SVGID_16_);}
	.st21{clip-path:url(#SVGID_18_);}
</style>
<g id="Background" class="st0">
	<rect class="st2" width="100" height="100"/>
</g>
<g id="Layer_1">
	<g>
		<circle class="st5" cx="38.67" cy="33.34" r="12.61"/>
	</g>
	<g>
		<circle class="st5" cx="62.61" cy="63.55" r="12.61"/>
	</g>
	<g>
		<path class="st5" d="M74.5,46.68l-0.99-0.16c0.77-4.9-0.42-9.8-3.34-13.81c-2.92-4.01-7.23-6.64-12.12-7.41l0.15-0.99
			c5.16,0.81,9.7,3.58,12.78,7.81C74.06,36.34,75.31,41.51,74.5,46.68z"/>
	</g>
	<g>
		<polygon class="st5" points="73.85,48 69.64,42.78 70.41,42.15 74.03,46.63 78.71,43.27 79.29,44.08 		"/>
	</g>
	<g>
		<path class="st5" d="M42.76,73.95c-10.66-1.67-17.97-11.7-16.29-22.36l0.99,0.15c-1.59,10.11,5.35,19.63,15.46,21.22L42.76,73.95z
			"/>
	</g>
	<g>
		<polygon class="st5" points="30.55,56.11 26.93,51.62 22.25,54.99 21.67,54.18 27.11,50.26 31.33,55.48 		"/>
	</g>
</g>
</svg>
