<?xml version="1.0" encoding="utf-8"?>
<!-- Generator: Adobe Illustrator 23.0.6, SVG Export Plug-In . SVG Version: 6.00 Build 0)  -->
<svg version="1.1" xmlns="http://www.w3.org/2000/svg" xmlns:xlink="http://www.w3.org/1999/xlink" x="0px" y="0px"
	 viewBox="0 0 100 100" style="enable-background:new 0 0 100 100;" xml:space="preserve">
<style type="text/css">
	.st0{display:none;}
	.st1{display:inline;fill:#6326FF;}
	.st2{display:inline;fill:#3E3088;}
	.st3{fill:#FFFFFF;}
	.st4{fill:none;stroke:#FFFFFF;stroke-miterlimit:10;}
	.st5{fill:#D8D8D8;}
	.st6{fill:none;stroke:#D8D8D8;stroke-miterlimit:10;}
	.st7{fill:url(#SVGID_1_);}
	.st8{fill:#3E3088;}
	.st9{fill:url(#SVGID_2_);}
	.st10{fill:url(#SVGID_3_);}
	.st11{fill:#6425FF;}
	.st12{fill:#222432;}
	.st13{fill:url(#SVGID_6_);}
	.st14{fill:url(#SVGID_9_);}
	.st15{fill:url(#SVGID_10_);}
	.st16{fill:url(#SVGID_11_);}
	.st17{fill:#2B1284;}
	.st18{fill:#76F6BE;}
	.st19{fill:url(#SVGID_14_);}
	.st20{clip-path:url(#SVGID_16_);}
	.st21{clip-path:url(#SVGID_18_);}
</style>
<g id="Background" class="st0">
	<rect class="st1" width="100" height="100"/>
</g>
<g id="Layer_1">
	<g>
		
			<image style="overflow:visible;opacity:0.3;" width="320" height="320" xlink:href="FD43D353D0146121.png"  transform="matrix(0.24 0 0 0.24 0.3261 -5.075)">
		</image>
		<g>
			<circle class="st3" cx="38.67" cy="33.34" r="12.61"/>
		</g>
	</g>
	<g>
		<linearGradient id="SVGID_1_" gradientUnits="userSpaceOnUse" x1="50" y1="63.5511" x2="75.2166" y2="63.5511">
			<stop  offset="0" style="stop-color:#6400FD"/>
			<stop  offset="0.2811" style="stop-color:#7D29FE"/>
			<stop  offset="0.7696" style="stop-color:#A76CFF"/>
			<stop  offset="0.9992" style="stop-color:#B786FF"/>
		</linearGradient>
		<circle class="st7" cx="62.61" cy="63.55" r="12.61"/>
	</g>
	<path class="st4" d="M74.01,46.6c1.63-10.4-5.48-20.16-15.88-21.79"/>
	<polyline class="st4" points="79,43.68 76.47,45.5 73.94,47.32 71.98,44.89 70.02,42.47 	"/>
	<path class="st4" d="M26.96,51.66c-1.63,10.4,5.48,20.16,15.88,21.79"/>
	<polyline class="st4" points="21.96,54.58 24.49,52.76 27.02,50.94 28.98,53.37 30.94,55.79 	"/>
	<path class="st17" d="M50.5,82.33c0,1.01-0.82,1.82-1.83,1.82c-1.01,0-1.83-0.82-1.83-1.82c0-1.01,0.82-1.82,1.83-1.82
		C49.68,80.5,50.5,81.32,50.5,82.33z"/>
	<path class="st17" d="M64.13,37.14c0,1.44-1.17,2.61-2.61,2.61c-1.44,0-2.61-1.17-2.61-2.61c0-1.44,1.17-2.61,2.61-2.61
		C62.96,34.53,64.13,35.7,64.13,37.14z"/>
	<path class="st18" d="M61.52,17.07c0,1.87-1.52,3.39-3.39,3.39c-1.87,0-3.39-1.52-3.39-3.39c0-1.87,1.52-3.39,3.39-3.39
		C60,13.68,61.52,15.2,61.52,17.07z"/>
	<path class="st18" d="M73.41,73.86c0,1.87-1.52,3.39-3.39,3.39c-1.87,0-3.39-1.52-3.39-3.39c0-1.87,1.52-3.39,3.39-3.39
		C71.9,70.47,73.41,71.99,73.41,73.86z"/>
	<path class="st17" d="M19.26,63.55c0,1.01-0.82,1.82-1.83,1.82c-1.01,0-1.83-0.82-1.83-1.82c0-1.01,0.82-1.82,1.83-1.82
		C18.44,61.73,19.26,62.54,19.26,63.55z"/>
</g>
</svg>
