<svg xmlns="http://www.w3.org/2000/svg" viewBox="0 0 100 100"><style>.st5{fill:#d8d8d8}</style><g id="Layer_1"><circle class="st5" cx="38.67" cy="33.34" r="12.61"/><circle class="st5" cx="62.61" cy="63.55" r="12.61"/><path class="st5" d="M74.5 46.68l-.99-.16c.77-4.9-.42-9.8-3.34-13.81a18.45 18.45 0 00-12.12-7.41l.15-.99c5.16.81 9.7 3.58 12.78 7.81a19.43 19.43 0 013.52 14.56z"/><path class="st5" d="M73.85 48l-4.21-5.22.77-.63 3.62 4.48 4.68-3.36.58.81zM42.76 73.95c-10.66-1.67-17.97-11.7-16.29-22.36l.99.15c-1.59 10.11 5.35 19.63 15.46 21.22l-.16.99z"/><path class="st5" d="M30.55 56.11l-3.62-4.49-4.68 3.37-.58-.81 5.44-3.92 4.22 5.22z"/></g></svg>