<?xml version="1.0" encoding="utf-8"?>
<!-- Generator: Adobe Illustrator 23.0.6, SVG Export Plug-In . SVG Version: 6.00 Build 0)  -->
<svg version="1.1" xmlns="http://www.w3.org/2000/svg" xmlns:xlink="http://www.w3.org/1999/xlink" x="0px" y="0px"
	 viewBox="0 0 100 100" style="enable-background:new 0 0 100 100;" xml:space="preserve">
<style type="text/css">
	.st0{display:none;}
	.st1{display:inline;fill:#6326FF;}
	.st2{display:inline;fill:#3E3088;}
	.st3{fill:#FFFFFF;}
	.st4{fill:none;stroke:#FFFFFF;stroke-miterlimit:10;}
	.st5{fill:#D8D8D8;}
	.st6{fill:none;stroke:#D8D8D8;stroke-miterlimit:10;}
	.st7{fill:url(#SVGID_1_);}
	.st8{fill:#3E3088;}
	.st9{fill:url(#SVGID_2_);}
	.st10{fill:url(#SVGID_3_);}
	.st11{fill:#6425FF;}
	.st12{fill:#222432;}
	.st13{fill:url(#SVGID_6_);}
	.st14{fill:url(#SVGID_9_);}
	.st15{fill:url(#SVGID_10_);}
	.st16{fill:url(#SVGID_11_);}
	.st17{fill:#2B1284;}
	.st18{fill:#76F6BE;}
	.st19{fill:url(#SVGID_14_);}
	.st20{clip-path:url(#SVGID_16_);}
	.st21{clip-path:url(#SVGID_18_);}
</style>
<g id="Background" class="st0">
	<rect y="0" class="st1" width="100" height="100"/>
</g>
<g id="Layer_1">
	<rect x="30.99" y="29.85" class="st3" width="7.27" height="37.26"/>
	<line class="st4" x1="34.62" y1="81.1" x2="34.62" y2="20.17"/>
	<rect x="41.24" y="43.77" class="st3" width="7.27" height="18.74"/>
	<line class="st4" x1="44.87" y1="65.7" x2="44.87" y2="38.87"/>
	<line class="st4" x1="55.13" y1="59.05" x2="55.13" y2="30.36"/>
	<rect x="61.74" y="20.29" class="st3" width="7.27" height="15.62"/>
	<line class="st4" x1="65.38" y1="47.45" x2="65.38" y2="13.41"/>
	<path class="st17" d="M25.12,71.4c0,1.01-0.82,1.82-1.83,1.82c-1.01,0-1.83-0.82-1.83-1.82c0-1.01,0.82-1.82,1.83-1.82
		C24.3,69.57,25.12,70.39,25.12,71.4z"/>
	<path class="st18" d="M54.09,20.17c0,1.44-1.17,2.61-2.61,2.61c-1.44,0-2.61-1.17-2.61-2.61c0-1.44,1.17-2.61,2.61-2.61
		C52.93,17.56,54.09,18.73,54.09,20.17z"/>
	<path class="st18" d="M15.46,37.97c0,1.87-1.52,3.39-3.39,3.39c-1.87,0-3.39-1.52-3.39-3.39c0-1.87,1.52-3.39,3.39-3.39
		C13.94,34.58,15.46,36.1,15.46,37.97z"/>
	<path class="st17" d="M81.07,38.82c0,1.01-0.82,1.82-1.83,1.82c-1.01,0-1.83-0.82-1.83-1.82c0-1.01,0.82-1.82,1.83-1.82
		C80.25,37,81.07,37.82,81.07,38.82z"/>
	<rect x="51.49" y="34.75" class="st3" width="7.28" height="21.29"/>
</g>
</svg>
