<svg xmlns="http://www.w3.org/2000/svg" viewBox="0 0 100 100"><style>.st3{fill:#fff}.st4{fill:none;stroke:#fff;stroke-miterlimit:10}.st17{fill:#2b1284}</style><g id="Layer_1"><path class="st3" d="M30.99 29.85h7.27v37.26h-7.27z"/><path class="st4" d="M34.62 81.1V20.17"/><path class="st3" d="M41.24 43.77h7.27v18.74h-7.27z"/><path class="st4" d="M44.87 65.7V38.87m10.26 20.18V30.36"/><path class="st3" d="M61.74 20.29h7.27v15.62h-7.27z"/><path class="st4" d="M65.38 47.45V13.41"/><path class="st17" d="M25.12 71.4c0 1.01-.82 1.82-1.83 1.82-1.01 0-1.83-.82-1.83-1.82 0-1.01.82-1.82 1.83-1.82 1.01-.01 1.83.81 1.83 1.82z"/><path d="M54.09 20.17c0 1.44-1.17 2.61-2.61 2.61s-2.61-1.17-2.61-2.61 1.17-2.61 2.61-2.61c1.45 0 2.61 1.17 2.61 2.61zm-38.63 17.8c0 1.87-1.52 3.39-3.39 3.39s-3.39-1.52-3.39-3.39 1.52-3.39 3.39-3.39 3.39 1.52 3.39 3.39z" fill="#76f6be"/><path class="st17" d="M81.07 38.82c0 1.01-.82 1.82-1.83 1.82-1.01 0-1.83-.82-1.83-1.82 0-1.01.82-1.82 1.83-1.82 1.01 0 1.83.82 1.83 1.82z"/><path class="st3" d="M51.49 34.75h7.28v21.29h-7.28z"/></g></svg>