<svg width="34" height="33" fill="none" xmlns="http://www.w3.org/2000/svg"><path d="M31.431 27.076c0 .3.24.543.534.543a.538.538 0 00.535-.543c0-.3-.24-.542-.535-.542a.538.538 0 00-.534.542zM28.224 27.076c0 .3.24.543.535.543a.538.538 0 00.534-.543c0-.3-.24-.542-.534-.542a.538.538 0 00-.535.542zM25.552 27.076c0 .3.24.543.535.543a.538.538 0 00.534-.543c0-.3-.24-.542-.534-.542a.538.538 0 00-.535.542zM23.413 27.076c0 .3.24.543.535.543a.538.538 0 00.534-.543c0-.3-.239-.542-.534-.542a.538.538 0 00-.535.542z" fill="#fff"/><path d="M6.845 32.5L1.5 27.076l5.345-5.424" stroke="#fff" stroke-width="1.085"/><path d="M21.81 27.076H1.5" stroke="#fff" stroke-width="1.085" stroke-linecap="round"/><path d="M1.5 5.924c0 .3.24.542.535.542a.538.538 0 00.534-.542c0-.3-.239-.543-.534-.543a.538.538 0 00-.535.543zM4.706 5.924c0 .3.24.542.535.542a.538.538 0 00.534-.542c0-.3-.239-.543-.534-.543a.538.538 0 00-.535.543zM7.38 5.924c0 .3.239.542.534.542a.538.538 0 00.534-.542c0-.3-.24-.543-.534-.543a.538.538 0 00-.535.543zM9.517 5.924c0 .3.24.542.535.542a.538.538 0 00.534-.542c0-.3-.24-.543-.534-.543a.538.538 0 00-.535.543z" fill="#fff"/><path d="M27.155.5L32.5 5.924l-5.345 5.423" stroke="#fff" stroke-width="1.085"/><path d="M12.19 5.924H32.5" stroke="#fff" stroke-width="1.085" stroke-linecap="round"/></svg>