<svg xmlns="http://www.w3.org/2000/svg" xmlns:xlink="http://www.w3.org/1999/xlink" viewBox="0 0 100 100"><style>.st4{fill:none;stroke:#fff;stroke-miterlimit:10}.st12{fill:#222432}.st17{fill:#2b1284}.st18{fill:#76f6be}</style><g id="Layer_1"><path fill="#6425ff" d="M49.36 58.09h3.93v4.7h-3.93z"/><image width="346" height="347" xlink:href="FDFD066BCD4F9F67.png" transform="matrix(.24 0 0 .24 9.815 -3.545)" overflow="visible" opacity=".2"/><circle transform="rotate(-89.267 51.321 38.115)" class="st12" cx="51.32" cy="38.11" r="20.43"/><path class="st12" d="M48.04 66.88h6.56v21.81h-6.56zM46.81 62.79h9.03v4.09h-9.03z"/><defs><path id="SVGID_12_" d="M67.67 38.11c0 9.03-7.32 16.35-16.35 16.35-9.03 0-16.35-7.32-16.35-16.35 0-9.03 7.32-16.35 16.35-16.35 9.03.01 16.35 7.33 16.35 16.35z"/></defs><use xlink:href="#SVGID_12_" overflow="visible" fill="#e0d3ff"/><clipPath id="SVGID_1_"><use xlink:href="#SVGID_12_" overflow="visible"/></clipPath><path class="st17" d="M32.71 71.54c0 1.01-.82 1.82-1.83 1.82-1.01 0-1.83-.82-1.83-1.82 0-1.01.82-1.82 1.83-1.82a1.81 1.81 0 011.83 1.82z"/><path class="st18" d="M72.34 28.23c0 1.44-1.17 2.61-2.61 2.61s-2.61-1.17-2.61-2.61 1.17-2.61 2.61-2.61c1.45.01 2.61 1.17 2.61 2.61zM79.83 61.34c0 1.87-1.52 3.39-3.39 3.39s-3.39-1.52-3.39-3.39 1.52-3.39 3.39-3.39 3.39 1.52 3.39 3.39zM23.05 38.12c0 1.87-1.52 3.39-3.39 3.39s-3.39-1.52-3.39-3.39 1.52-3.39 3.39-3.39 3.39 1.51 3.39 3.39z"/><path class="st17" d="M88.66 38.96c0 1.01-.82 1.82-1.83 1.82-1.01 0-1.83-.82-1.83-1.82 0-1.01.82-1.82 1.83-1.82 1.01 0 1.83.82 1.83 1.82z"/><linearGradient id="SVGID_2_" gradientUnits="userSpaceOnUse" x1="34.902" y1="38.115" x2="67.741" y2="38.115"><stop offset="0" stop-color="#6400fd"/><stop offset=".281" stop-color="#7d29fe"/><stop offset=".77" stop-color="#a76cff"/><stop offset=".999" stop-color="#b786ff"/></linearGradient><circle cx="51.32" cy="38.11" r="16.42" fill="url(#SVGID_2_)"/><g><path class="st4" d="M42.37 38.11h17.9M51.32 29.17v17.89"/></g></g></svg>