<svg width="100" height="100" fill="none" xmlns="http://www.w3.org/2000/svg"><path d="M53.29 58.09h-3.93v4.7h3.93v-4.7z" fill="#6425FF"/><path d="M71.744 38.378c.144-11.282-8.885-20.545-20.167-20.69-11.282-.144-20.545 8.885-20.689 20.167-.145 11.282 8.884 20.545 20.166 20.69 11.282.144 20.546-8.885 20.69-20.167z" fill="#fff"/><path d="M54.6 66.88h-6.56v21.81h6.56V66.88zM55.84 62.79h-9.03v4.09h9.03v-4.09z" fill="#222432"/><path d="M67.67 38.11c0 9.03-7.32 16.35-16.35 16.35-9.03 0-16.35-7.32-16.35-16.35 0-9.03 7.32-16.35 16.35-16.35 9.03.01 16.35 7.33 16.35 16.35z" fill="#E0D3FF"/><path d="M51.32 54.53c9.068 0 16.42-7.352 16.42-16.42 0-9.069-7.352-16.42-16.42-16.42-9.069 0-16.42 7.351-16.42 16.42 0 9.069 7.351 16.42 16.42 16.42z" fill="url(#paint0_linear)"/><path d="M42.37 38.11h17.9M51.32 29.17v17.89" stroke="#fff" stroke-miterlimit="10"/><defs><linearGradient id="paint0_linear" x1="34.902" y1="38.115" x2="67.741" y2="38.115" gradientUnits="userSpaceOnUse"><stop stop-color="#2E3191"/><stop offset=".098" stop-color="#373A96"/><stop offset=".259" stop-color="#5052A3"/><stop offset=".462" stop-color="#7779B8"/><stop offset=".7" stop-color="#AFB0D5"/><stop offset=".964" stop-color="#F5F5FA"/><stop offset="1" stop-color="#fff"/></linearGradient></defs></svg>