<?xml version="1.0" encoding="utf-8"?>
<!-- Generator: Adobe Illustrator 23.0.6, SVG Export Plug-In . SVG Version: 6.00 Build 0)  -->
<svg version="1.1" xmlns="http://www.w3.org/2000/svg" xmlns:xlink="http://www.w3.org/1999/xlink" x="0px" y="0px"
	 viewBox="0 0 100 100" style="enable-background:new 0 0 100 100;" xml:space="preserve">
<style type="text/css">
	.st0{display:none;}
	.st1{display:inline;fill:#6326FF;}
	.st2{display:inline;fill:#3E3088;}
	.st3{fill:#FFFFFF;}
	.st4{fill:none;stroke:#FFFFFF;stroke-miterlimit:10;}
	.st5{fill:#D8D8D8;}
	.st6{fill:none;stroke:#D8D8D8;stroke-miterlimit:10;}
	.st7{fill:url(#SVGID_1_);}
	.st8{fill:#3E3088;}
	.st9{fill:url(#SVGID_2_);}
	.st10{fill:url(#SVGID_3_);}
	.st11{fill:#6425FF;}
	.st12{fill:#222432;}
	.st13{fill:url(#SVGID_6_);}
	.st14{fill:url(#SVGID_9_);}
	.st15{fill:url(#SVGID_10_);}
	.st16{fill:url(#SVGID_11_);}
	.st17{fill:#2B1284;}
	.st18{fill:#76F6BE;}
	.st19{fill:url(#SVGID_14_);}
	.st20{clip-path:url(#SVGID_16_);}
	.st21{clip-path:url(#SVGID_18_);}
</style>
<g id="Background" class="st0">
	<rect class="st1" width="100" height="100"/>
</g>
<g id="Layer_1">
	<rect x="49.36" y="58.09" class="st11" width="3.93" height="4.7"/>
	<g>
		
			<image style="overflow:visible;opacity:0.2;" width="346" height="347" xlink:href="FDFD066BCD4F9F67.png"  transform="matrix(0.24 0 0 0.24 9.8151 -3.545)">
		</image>
		<g>
			
				<ellipse transform="matrix(0.0128 -0.9999 0.9999 0.0128 12.5529 88.9438)" class="st12" cx="51.32" cy="38.11" rx="20.43" ry="20.43"/>
		</g>
	</g>
	<rect x="48.04" y="66.88" class="st12" width="6.56" height="21.81"/>
	<rect x="46.81" y="62.79" class="st12" width="9.03" height="4.09"/>
	<g>
		<defs>
			<path id="SVGID_12_" d="M67.67,38.11c0,9.03-7.32,16.35-16.35,16.35c-9.03,0-16.35-7.32-16.35-16.35
				c0-9.03,7.32-16.35,16.35-16.35C60.35,21.77,67.67,29.09,67.67,38.11z"/>
		</defs>
		<use xlink:href="#SVGID_12_"  style="overflow:visible;fill:#E0D3FF;"/>
		<clipPath id="SVGID_1_">
			<use xlink:href="#SVGID_12_"  style="overflow:visible;"/>
		</clipPath>
	</g>
	<path class="st17" d="M32.71,71.54c0,1.01-0.82,1.82-1.83,1.82c-1.01,0-1.83-0.82-1.83-1.82c0-1.01,0.82-1.82,1.83-1.82
		C31.9,69.71,32.71,70.53,32.71,71.54z"/>
	<path class="st18" d="M72.34,28.23c0,1.44-1.17,2.61-2.61,2.61c-1.44,0-2.61-1.17-2.61-2.61c0-1.44,1.17-2.61,2.61-2.61
		C71.18,25.63,72.34,26.79,72.34,28.23z"/>
	<path class="st18" d="M79.83,61.34c0,1.87-1.52,3.39-3.39,3.39c-1.87,0-3.39-1.52-3.39-3.39c0-1.87,1.52-3.39,3.39-3.39
		C78.31,57.95,79.83,59.47,79.83,61.34z"/>
	<path class="st18" d="M23.05,38.12c0,1.87-1.52,3.39-3.39,3.39c-1.87,0-3.39-1.52-3.39-3.39c0-1.87,1.52-3.39,3.39-3.39
		C21.53,34.73,23.05,36.24,23.05,38.12z"/>
	<path class="st17" d="M88.66,38.96c0,1.01-0.82,1.82-1.83,1.82c-1.01,0-1.83-0.82-1.83-1.82c0-1.01,0.82-1.82,1.83-1.82
		C87.84,37.14,88.66,37.96,88.66,38.96z"/>
	<linearGradient id="SVGID_2_" gradientUnits="userSpaceOnUse" x1="34.9019" y1="38.1146" x2="67.7412" y2="38.1146">
		<stop  offset="0" style="stop-color:#6400FD"/>
		<stop  offset="0.2811" style="stop-color:#7D29FE"/>
		<stop  offset="0.7696" style="stop-color:#A76CFF"/>
		<stop  offset="0.9992" style="stop-color:#B786FF"/>
	</linearGradient>
	<circle class="st9" cx="51.32" cy="38.11" r="16.42"/>
	<g>
		<line class="st4" x1="42.37" y1="38.11" x2="60.27" y2="38.11"/>
		<line class="st4" x1="51.32" y1="29.17" x2="51.32" y2="47.06"/>
	</g>
</g>
</svg>
