<svg width="1109" height="235" fill="none" xmlns="http://www.w3.org/2000/svg"><path d="M314.175 58.964h52.912c12.646 0 23.794 2.44 33.444 7.321 9.762 4.77 17.305 11.537 22.629 20.3 5.435 8.763 8.153 18.968 8.153 30.615 0 11.647-2.718 21.853-8.153 30.616-5.324 8.763-12.867 15.585-22.629 20.465-9.65 4.77-20.798 7.155-33.444 7.155h-52.912V58.964zm51.581 94.342c11.647 0 20.91-3.216 27.787-9.65 6.988-6.545 10.482-15.363 10.482-26.456 0-11.092-3.494-19.856-10.482-26.29-6.877-6.544-16.14-9.816-27.787-9.816H341.13v72.212h24.626zm171.742-22.296c0 .333-.167 2.663-.499 6.989h-67.721c1.221 5.546 4.105 9.928 8.653 13.144 4.548 3.217 10.205 4.826 16.971 4.826 4.659 0 8.763-.666 12.313-1.997 3.661-1.442 7.044-3.661 10.15-6.656l13.81 14.975c-8.43 9.651-20.743 14.476-36.938 14.476-10.095 0-19.024-1.941-26.789-5.823-7.765-3.994-13.755-9.484-17.97-16.473-4.215-6.988-6.323-14.919-6.323-23.793 0-8.764 2.052-16.639 6.157-23.628 4.215-7.099 9.928-12.59 17.138-16.472 7.321-3.993 15.474-5.99 24.459-5.99 8.763 0 16.694 1.886 23.793 5.657 7.1 3.772 12.646 9.207 16.639 16.306 4.105 6.989 6.157 15.142 6.157 24.459zm-46.423-26.788c-5.879 0-10.815 1.664-14.808 4.991-3.994 3.328-6.434 7.876-7.321 13.644h44.093c-.888-5.657-3.328-10.149-7.322-13.477-3.993-3.439-8.874-5.158-14.642-5.158zm150.93-18.303l-37.77 89.517h-26.788l-37.604-89.517h26.788l24.792 60.898 25.624-60.898h24.958zm95.842 45.091c0 .333-.167 2.663-.5 6.989h-67.72c1.22 5.546 4.105 9.928 8.652 13.144 4.548 3.217 10.206 4.826 16.972 4.826 4.659 0 8.763-.666 12.313-1.997 3.66-1.442 7.044-3.661 10.15-6.656l13.81 14.975c-8.43 9.651-20.743 14.476-36.938 14.476-10.095 0-19.024-1.941-26.789-5.823-7.765-3.994-13.755-9.484-17.97-16.473-4.215-6.988-6.323-14.919-6.323-23.793 0-8.764 2.052-16.639 6.157-23.628 4.215-7.099 9.927-12.59 17.138-16.472 7.321-3.993 15.474-5.99 24.459-5.99 8.763 0 16.694 1.886 23.793 5.657 7.1 3.772 12.646 9.207 16.639 16.306 4.105 6.989 6.157 15.142 6.157 24.459zm-46.423-26.788c-5.879 0-10.815 1.664-14.808 4.991-3.994 3.328-6.434 7.876-7.322 13.644h44.094c-.888-5.657-3.328-10.149-7.322-13.477-3.993-3.439-8.874-5.158-14.642-5.158zm88.496-6.49c3.106-4.325 7.265-7.598 12.479-9.816 5.324-2.219 11.425-3.328 18.302-3.328v23.96c-2.884-.222-4.825-.333-5.823-.333-7.432 0-13.256 2.108-17.471 6.323-4.215 4.104-6.323 10.316-6.323 18.635v42.263h-25.956V85.919h24.792v11.814zm76.657 79.035c-7.432 0-14.698-.887-21.797-2.662-7.099-1.886-12.757-4.215-16.972-6.988l8.652-18.636c3.994 2.552 8.819 4.659 14.476 6.323 5.657 1.553 11.204 2.329 16.639 2.329 10.982 0 16.473-2.717 16.473-8.153 0-2.551-1.498-4.381-4.493-5.49-2.995-1.11-7.598-2.053-13.81-2.829-7.321-1.109-13.367-2.385-18.137-3.827-4.769-1.442-8.929-3.993-12.479-7.654-3.438-3.66-5.158-8.874-5.158-15.64 0-5.658 1.609-10.649 4.825-14.975 3.328-4.437 8.098-7.876 14.31-10.316 6.323-2.44 13.755-3.661 22.296-3.661 6.323 0 12.59.721 18.802 2.163 6.323 1.331 11.536 3.217 15.64 5.657l-8.652 18.469c-7.876-4.437-16.472-6.655-25.79-6.655-5.546 0-9.706.776-12.479 2.329-2.773 1.553-4.16 3.55-4.16 5.99 0 2.773 1.498 4.715 4.493 5.824s7.764 2.163 14.309 3.161c7.321 1.22 13.311 2.552 17.97 3.994 4.659 1.331 8.708 3.827 12.146 7.487 3.439 3.661 5.158 8.763 5.158 15.308 0 5.546-1.663 10.482-4.991 14.808-3.328 4.327-8.209 7.71-14.642 10.15-6.323 2.33-13.866 3.494-22.629 3.494zm58.277-90.848h25.957v89.517h-25.957V85.919zm12.979-12.48c-4.77 0-8.653-1.386-11.648-4.159-2.995-2.773-4.492-6.212-4.492-10.316 0-4.104 1.497-7.543 4.492-10.316 2.995-2.773 6.878-4.16 11.648-4.16 4.769 0 8.652 1.331 11.647 3.994 2.995 2.662 4.492 5.99 4.492 9.983 0 4.326-1.497 7.931-4.492 10.815-2.995 2.773-6.878 4.16-11.647 4.16zm65.853 7.156v30.782h53.914v21.63h-53.914v42.429h-26.955V58.964h88.019v21.63h-61.064zm75.854 5.324h25.96v89.517h-25.96V85.919zm12.98-12.48c-4.77 0-8.65-1.386-11.65-4.159-2.99-2.773-4.49-6.212-4.49-10.316 0-4.104 1.5-7.543 4.49-10.316 3-2.773 6.88-4.16 11.65-4.16 4.77 0 8.65 1.331 11.65 3.994 2.99 2.662 4.49 5.99 4.49 9.983 0 4.326-1.5 7.931-4.49 10.815-3 2.773-6.88 4.16-11.65 4.16zM53.6 148.4c-5.4-5.4-5.4-14.1 0-19.5l54.5-54.5-21.7-21.7c-5.4-5.4-14.1-5.4-19.5 0L4.2 115.4c-5.4 5.4-5.4 14.1 0 19.5l66.2 66.2c5.4 5.4 14.1 5.4 19.5 0l8.2-8.2-44.5-44.5z" fill="#fff"/><path d="M165.2 230.9L59.4 125c-5.4-5.4-5.4-14.1 0-19.5L160.1 4.8c5.4-5.4 14.1-5.4 19.5 0l105.8 105.8c5.4 5.4 5.4 14.1 0 19.5L184.8 230.9c-5.4 5.4-14.2 5.4-19.6 0z" fill="#fff"/></svg>