<svg width="71" height="71" viewBox="0 0 71 71" fill="none" xmlns="http://www.w3.org/2000/svg">
  <path d="M71 35.5C71 55.1061 55.1061 71 35.5 71C15.8939 71 0 55.1061 0 35.5C0 15.8939 15.8939 0 35.5 0C55.1061 0 71 15.8939 71 35.5Z" fill="#27AE60"/>
  <path fill-rule="evenodd" clip-rule="evenodd" d="M51.596 25.4303C52.1379 26.0007 52.1342 26.9215 51.5877 27.487L30.2371 49.5785C29.6939 50.1405 28.8181 50.1405 28.2749 49.5785L17.4124 38.339C16.8659 37.7735 16.862 36.8526 17.4039 36.2823C17.9458 35.7119 18.8281 35.708 19.3746 36.2736L29.256 46.4978L49.6253 25.4216C50.1719 24.8561 51.0542 24.86 51.596 25.4303Z" fill="white" stroke="white" stroke-width="4.47" stroke-linecap="round" stroke-linejoin="round"/>
</svg>
