<svg width="69" height="69" fill="none" xmlns="http://www.w3.org/2000/svg"><path d="M61.634 54.99a6.174 6.174 0 001.178-3.632V43.26c0-.744-.604-1.348-1.348-1.348H55.44a5.055 5.055 0 00-5.05 5.05v4.396c0 1.354.438 2.607 1.176 3.63a8.677 8.677 0 00-2.634.876 11.466 11.466 0 00-8.465-5.046l-.042-.01a7.924 7.924 0 002.03-5.302V34.5c0-.744-.603-1.348-1.348-1.348h-8.185a6.386 6.386 0 00-6.38 6.38v5.974c0 2.035.77 3.893 2.03 5.302l-.04.01a11.466 11.466 0 00-8.466 5.046 8.689 8.689 0 00-2.635-.876 6.175 6.175 0 001.176-3.63V43.26c0-.744-.603-1.348-1.347-1.348h-6.023a5.055 5.055 0 00-5.05 5.05v4.396c0 1.355.438 2.61 1.178 3.631C3.194 55.671 0 59.3 0 63.66v3.993C0 68.397.603 69 1.348 69h66.304c.745 0 1.348-.603 1.348-1.348V63.66c0-4.361-3.194-7.989-7.366-8.67zM8.884 46.96a2.357 2.357 0 012.354-2.354h4.675v1.642c0 .805-.655 1.46-1.46 1.46h-5.57v-.748zm0 3.442h5.57c.513 0 1.005-.094 1.46-.265v1.22a3.519 3.519 0 01-3.516 3.515 3.519 3.519 0 01-3.514-3.515v-.955zm4.383 7.165l-.869.869-.868-.87h1.737zm4.866 4.658v4.079H2.695V63.66c0-3.023 2.214-5.537 5.104-6.01l3.646 3.645a1.348 1.348 0 001.906 0L17 57.648a6.027 6.027 0 011.84.616 11.404 11.404 0 00-.706 3.962zM34.5 50.767c-2.9 0-5.26-2.36-5.26-5.26v-1.782h8.053c.894 0 1.735-.228 2.468-.629v2.41c0 2.901-2.36 5.261-5.26 5.261zm2.35 2.695l-2.35 2.35-2.35-2.35h4.7zm-7.611-13.93a3.687 3.687 0 013.684-3.684h6.838v2.714a2.47 2.47 0 01-2.468 2.468H29.24V39.53zm18.933 26.773H20.829v-2.696h8.775a1.348 1.348 0 000-2.695h-8.677a8.782 8.782 0 017.493-7.37l5.127 5.126a1.344 1.344 0 001.906 0l5.127-5.127c4.28.575 7.592 4.248 7.592 8.683v4.079zm4.915-19.344a2.357 2.357 0 012.354-2.354h4.675v1.642a1.46 1.46 0 01-1.46 1.46h-5.57v-.748zm0 3.442h5.57c.513 0 1.005-.094 1.46-.265v1.22a3.519 3.519 0 01-3.515 3.515 3.519 3.519 0 01-3.515-3.515v-.955zm4.383 7.165l-.868.869-.87-.87h1.738zm-6.603 8.737v-4.079c0-1.392-.25-2.727-.707-3.962a6.014 6.014 0 011.84-.616l3.648 3.647a1.348 1.348 0 001.906 0l3.647-3.646c2.89.474 5.104 2.988 5.104 6.01v2.646H50.867zM41.142 8.805a1.348 1.348 0 00-1.906 0l-6.613 6.613-2.859-2.858a1.347 1.347 0 10-1.905 1.905l3.811 3.812a1.348 1.348 0 001.906 0l7.566-7.566a1.348 1.348 0 000-1.906z" fill="#fff"/><path d="M40.01 1.169a1.348 1.348 0 00-1.097 2.461 10.864 10.864 0 016.433 9.911c0 5.98-4.866 10.846-10.846 10.846s-10.846-4.865-10.846-10.846c0-4.255 2.507-8.138 6.387-9.89a1.348 1.348 0 10-1.11-2.456A13.572 13.572 0 0020.96 13.54c0 7.467 6.074 13.541 13.541 13.541 7.467 0 13.541-6.074 13.541-13.54 0-5.341-3.152-10.198-8.03-12.373z" fill="#fff"/><path d="M34.548 0H34.5a1.348 1.348 0 000 2.695H34.542A1.348 1.348 0 0034.548 0zM35.453 61.309a1.358 1.358 0 00-.953-.395c-.354 0-.702.144-.953.395-.25.25-.395.598-.395.953 0 .354.144.702.395.953.251.25.599.394.953.394s.702-.144.953-.395c.25-.25.395-.598.395-.952 0-.355-.145-.702-.395-.953z" fill="#fff"/></svg>