<svg width="69" height="72" fill="none" xmlns="http://www.w3.org/2000/svg"><path d="M67.604 41.405H56.728V24.147c0-.77-.625-1.395-1.395-1.395H44.608l-9.573-9.574a7.016 7.016 0 00-5.838-1.983l-5.717.75c.12-.462 0-.974-.363-1.337l-3.172-3.172a1.388 1.388 0 00-.225-.297L12.99.41a1.396 1.396 0 00-1.975 0L.41 11.015a1.396 1.396 0 000 1.974l17.56 17.56a7.276 7.276 0 005.117 2.144l8.225.066v8.646H3.858c-.77 0-1.396.625-1.396 1.395v27.267c0 .77.625 1.395 1.396 1.395h63.746c.771 0 1.396-.624 1.396-1.395V42.8c0-.771-.625-1.396-1.396-1.396zM53.937 25.544v24.563H34.102V32.704c.033-.005.066-.013.1-.019l.09-.017.153-.036.077-.018c.068-.018.135-.037.202-.058l.024-.007c.074-.023.148-.048.221-.075l.065-.025c.05-.02.102-.039.152-.06l.08-.035a4.459 4.459 0 00.54-.278 5.11 5.11 0 00.197-.123l.078-.052c.04-.027.078-.055.116-.082l.07-.052c.043-.032.085-.066.127-.1.018-.014.036-.027.053-.042.059-.048.117-.098.173-.15l.025-.023c.048-.044.095-.088.14-.134l.056-.057c.035-.036.07-.071.103-.108l.06-.068a5.258 5.258 0 00.292-.361 4.519 4.519 0 00.206-.305l.05-.079c.025-.041.048-.084.072-.127l.041-.073a4.89 4.89 0 00.082-.16l.023-.045c.034-.07.066-.14.096-.21l.024-.06a5.23 5.23 0 00.062-.157l.028-.081c.017-.047.033-.093.048-.14l.027-.09a5.48 5.48 0 00.114-.464c.01-.046.017-.092.025-.138l.016-.098c.007-.048.012-.096.018-.145.004-.031.008-.062.01-.093.006-.054.01-.108.013-.163.002-.026.005-.053.006-.08a5.09 5.09 0 00.006-.244v-.016c0-.094-.003-.186-.008-.278l-.007-.09a4.903 4.903 0 00-.016-.185l-.014-.103a4.686 4.686 0 00-.145-.705l-.026-.093a5.137 5.137 0 00-.062-.186l-.022-.066a4.998 4.998 0 00-.097-.247l-.021-.047a4.99 4.99 0 00-.089-.192l-.01-.02h16.19zM3.37 12.002l8.632-8.632 4.757 4.756-8.633 8.633-4.756-4.757zm6.73 6.731l8.597-8.597 1.459 1.46-8.597 8.596-1.459-1.459zm13.008 11.168a4.5 4.5 0 01-3.165-1.325l-6.41-6.41 2.193-2.193 4.828-4.828 9.006-1.182a4.207 4.207 0 013.5 1.189l7.6 7.6H27.827a1.396 1.396 0 100 2.79h5.432c1.22 0 2.213.993 2.213 2.213v.016c0 .381-.097.74-.267 1.054a2.205 2.205 0 01-1.934 1.159L23.108 29.9zM5.254 44.197H31.31v5.911H19.375a1.396 1.396 0 100 2.792h37.601a1.396 1.396 0 000-2.792h-.248v-5.91h9.48v16.535H5.254V44.196zm60.955 24.475H5.254v-5.148h60.955v5.148z" fill="#fff"/><path d="M50.984 30.634a1.396 1.396 0 00-1.932.403l-5.352 8.18-4.133-3.364a1.396 1.396 0 00-1.762 2.164l5.334 4.342a1.396 1.396 0 002.049-.318l6.2-9.475a1.396 1.396 0 00-.404-1.933zM23.686 23.874a1.446 1.446 0 00-.208-.5 1.417 1.417 0 00-.387-.387 1.412 1.412 0 00-.5-.208 1.38 1.38 0 00-1.049.208 1.402 1.402 0 00-.514.627 1.446 1.446 0 00-.107.534 1.378 1.378 0 00.107.533 1.396 1.396 0 00.514.627 1.374 1.374 0 00.502.208 1.378 1.378 0 001.26-.381 1.411 1.411 0 00.382-.715 1.376 1.376 0 000-.546zM15.854 51.231a1.367 1.367 0 00-.593-.888 1.374 1.374 0 00-.502-.208 1.374 1.374 0 00-.806.08 1.377 1.377 0 00-.755.755 1.41 1.41 0 00-.107.533 1.378 1.378 0 00.107.535 1.42 1.42 0 00.302.452 1.374 1.374 0 00.715.381 1.378 1.378 0 001.258-.381 1.405 1.405 0 00.381-1.259z" fill="#fff"/></svg>