<svg width="21" height="23" viewBox="0 0 21 23" fill="none" xmlns="http://www.w3.org/2000/svg">
<g clip-path="url(#clip0)">
<path d="M11.6337 0.472918C4.19967 -1.41637 2.01567 2.97828 1.84767 3.53274C0.566666 4.00506 -0.462334 4.72381 0.209666 5.21667C0.797666 5.64792 2.01567 5.54524 2.39367 5.58631C3.44367 5.68899 3.77967 5.68899 5.29167 6.40774C7.43367 7.43453 10.2897 7.51667 12.5577 9.03631C17.4717 12.3426 18.0177 16.6961 18.0597 18.2774C17.7237 17.9693 16.8417 17.2506 15.7917 17.2506C14.4477 17.2506 13.3767 18.4417 13.3767 18.4417C13.3767 18.4417 14.4687 19.6327 15.7917 19.6327C16.3797 19.6327 16.9047 19.4068 17.3247 19.1399C17.0727 19.5506 16.8207 20.064 16.8207 20.639C16.8207 21.9533 18.0387 23.0006 18.0387 23.0006C18.0387 23.0006 19.2567 21.9327 19.2567 20.639C19.2567 19.7765 18.7317 19.0167 18.3537 18.606C18.9207 18.0515 20.0757 16.7577 20.6217 14.8274C21.9027 10.4327 19.8867 2.54703 11.6337 0.472918Z" fill="#5FF5FC"/>
<path d="M18.102 4.33303C19.488 2.0125 21.21 2.99821 20.349 2.07411C19.761 1.45803 17.094 0.718748 14.868 1.725C16.17 2.44375 17.241 3.32678 18.102 4.33303Z" fill="#5FF5FC"/>
<path d="M5.31308 6.40714C7.45508 7.43393 10.3111 7.51607 12.5791 9.03571C17.4931 12.342 18.0391 16.6955 18.0811 18.2768C18.0811 18.2768 19.6771 16.5107 18.4171 12.2393C17.5561 9.34375 15.1621 7.06428 12.0541 5.70893C9.05108 4.39464 5.25008 3.86071 3.50708 4.62053C2.47808 5.07232 0.924079 5.23661 0.231079 5.21607C0.819079 5.64732 2.03708 5.54464 2.41508 5.58571C3.46508 5.66786 3.80108 5.68839 5.31308 6.40714Z" fill="white"/>
<path d="M12.3901 9.22054C12.5161 9.15893 12.5371 9.01518 12.4741 8.9125C12.2431 8.60447 11.6341 7.9884 10.3321 7.45447C9.15606 6.96161 8.16906 6.98215 7.70706 7.02322C7.56006 7.04376 7.45506 7.14643 7.47606 7.26965C7.60206 7.96786 8.23206 10.083 10.8151 11.5205C13.2721 12.8759 10.2061 10.3911 12.3901 9.22054Z" fill="#5FF5FC"/>
<path d="M6.27901 2.95715C6.21601 3.18304 5.98501 3.30625 5.77501 3.24465C5.54401 3.18304 5.41801 2.95715 5.48101 2.75179C5.54401 2.5259 5.77501 2.40268 5.98501 2.46429C6.21601 2.5259 6.34201 2.75179 6.27901 2.95715Z" fill="#222A43"/>
</g>
<defs>
<clipPath id="clip0">
<rect width="21" height="23" fill="white"/>
</clipPath>
</defs>
</svg>
