<svg width="47" height="47" viewBox="0 0 47 47" version="1.1" xmlns="http://www.w3.org/2000/svg" xmlns:xlink="http://www.w3.org/1999/xlink">
  <g id="Canvas" transform="translate(197 -3911)">
    <g id="Layer 1">
      <g id="Vector">
        <use xlink:href="#path0_fill" transform="translate(-197 3911)" fill="#191F32"/>
      </g>
      <g id="Vector">
        <use xlink:href="#path1_fill" transform="translate(-187.138 3926.67)" fill="#FFFFFF"/>
      </g>
      <g id="Vector">
        <use xlink:href="#path2_fill" transform="translate(-179.711 3926.04)" fill="#FFFFFF"/>
      </g>
      <g id="Vector">
        <use xlink:href="#path3_fill" transform="translate(-169.302 3926.67)" fill="#FFFFFF"/>
      </g>
    </g>
  </g>
  <defs>
    <path id="path0_fill" d="M 23.5 47C 36.4787 47 47 36.4787 47 23.5C 47 10.5213 36.4787 0 23.5 0C 10.5213 0 0 10.5213 0 23.5C 0 36.4787 10.5213 47 23.5 47Z"/>
    <path id="path1_fill" d="M 5.338 8.31738L 8.68271 3.46008L 5.36821 -6.70611e-07L -8.38264e-08 8.24505L 8.44282 16.2841L 9.44084 16.2841L 5.338 8.31738Z"/>
    <path id="path2_fill" d="M 6.21973 2.79421e-07L 6.70611e-07 8.94824L 4.04516 16.914L 5.52661 16.914L 6.09063 16.914L 6.34883 16.914L 6.91193 16.914L 8.39338 16.914L 12.4395 8.94824L 6.21973 2.79421e-07Z"/>
    <path id="path3_fill" d="M 4.10192 8.31738L 0.757208 3.46008L 4.07262 -6.70611e-07L 9.43992 8.24505L 0.997097 16.2841L 8.94149e-07 16.2841L 4.10192 8.31738Z"/>
  </defs>
</svg>
