<svg width="28" height="17" viewBox="0 0 28 17" fill="none" xmlns="http://www.w3.org/2000/svg">
<path d="M24.2395 5.85556L22.7623 8.02778C20.8978 7.48472 21.0431 1.29861 21.4305 0.543056C20.0987 0.188889 13.2457 0 11.7202 0C6.61076 0 2.83318 5.17083 0.96861 7.55556L0 8.5L0.96861 9.44444C2.83318 11.8292 6.61076 17 11.7202 17C13.2457 17 20.0987 16.8111 21.4547 16.4569C21.0673 15.7014 20.9704 9.60972 22.7865 9.01944L24.2637 11.1681C24.7722 11.9 25.8861 11.8528 26.3462 11.0736C27.2422 9.49167 27.2422 7.55556 26.3462 5.97361C25.8861 5.17083 24.748 5.12361 24.2395 5.85556Z" fill="#5FF5FC"/>
<path d="M0.96861 7.55554L0 8.49999L0.96861 9.44443C2.03408 10.8139 3.75336 13.1278 6.00538 14.8278C7.09507 13.0569 7.74888 10.8611 7.74888 8.49999C7.74888 6.13888 7.09507 3.94304 6.00538 2.17221C3.75336 3.87221 2.03408 6.1861 0.96861 7.55554Z" fill="#5FF5FC"/>
<path d="M21.721 6.75278C20.2923 2.83333 16.6842 0.0708333 12.4466 0C12.1318 0 11.8896 0 11.7201 0C9.56497 0 7.65196 0.920833 6.02954 2.14861C7.11923 3.94306 7.74882 6.13889 7.74882 8.5C7.74882 10.8611 7.11923 13.0569 6.02954 14.8514C7.65196 16.0792 9.56497 17 11.7201 17C11.9381 17 12.2529 17 12.6403 17C16.8295 16.9292 20.3892 14.1903 21.7695 10.3417C22.0116 9.68056 22.3506 9.18472 22.7865 9.04306V8.02778C22.3022 7.90972 21.9632 7.41389 21.721 6.75278Z" fill="#6326FF"/>
<path d="M4.35882 7.55556C4.62629 7.55556 4.84312 7.34414 4.84312 7.08334C4.84312 6.82254 4.62629 6.61111 4.35882 6.61111C4.09134 6.61111 3.87451 6.82254 3.87451 7.08334C3.87451 7.34414 4.09134 7.55556 4.35882 7.55556Z" fill="#222A43"/>
<path d="M12.5919 8.5H9.20178C9.20178 10.0583 10.5094 11.3333 12.1076 11.3333H14.0448V9.91667C14.0448 9.1375 13.391 8.5 12.5919 8.5Z" fill="#5FF5FC"/>
</svg>
