<svg width="290" height="235" viewBox="0 0 290 235" fill="none" xmlns="http://www.w3.org/2000/svg">
<path d="M53.6 148.4C48.2 143 48.2 134.3 53.6 128.9L108.1 74.4L86.4 52.7C81 47.3 72.3 47.3 66.9 52.7L4.20002 115.4C-1.19998 120.8 -1.19998 129.5 4.20002 134.9L70.4 201.1C75.8 206.5 84.5 206.5 89.9 201.1L98.1 192.9L53.6 148.4Z" fill="#6436FF"/>
<path d="M165.2 230.9L59.4 125C54 119.6 54 110.9 59.4 105.5L160.1 4.90001C165.5 -0.499994 174.2 -0.499994 179.6 4.90001L285.4 110.7C290.8 116.1 290.8 124.8 285.4 130.2L184.8 230.9C179.4 236.3 170.6 236.3 165.2 230.9Z" fill="#6436FF"/>
</svg>
