<svg width="43" height="43" viewBox="0 0 43 43" fill="none" xmlns="http://www.w3.org/2000/svg">
<g clip-path="url(#clip0)">
<path d="M23.0672 24.0805L27.5575 27.4581L27.5774 13.9675L23.0871 17.3451L23.0672 24.0805Z" fill="#5FF5FC"/>
<path d="M18.0206 11.166L18.0206 16.7689L13.5304 16.7689L13.5304 15.6563C13.5105 13.1727 15.5371 11.1462 18.0206 11.166Z" fill="#5FF5FC"/>
<path d="M37.8296 15.9942L34.1937 18.8354C33.5976 19.3122 32.783 19.4513 32.028 19.2526C28.6901 18.2989 22.3919 15.6564 14.0869 15.6564C4.98717 15.6564 0.039945 21.9945 0.039945 21.9945C2.16586 24.1204 6.23888 26.1668 14.0869 25.7893C21.2395 25.4317 28.6504 23.1468 32.0082 22.1733C32.7433 21.9547 33.5778 22.1137 34.1738 22.5905L37.8097 25.4317C37.9091 25.4913 38.0481 25.392 37.9885 25.2926L36.3593 22.3521C35.7832 21.3388 35.803 20.0871 36.3593 19.0937L37.9885 16.1532C38.0283 16.0339 37.9091 15.9147 37.8296 15.9942Z" fill="#BABFD6"/>
<path d="M21.9545 27.4581L21.9545 24.0805L19.7094 24.1004L19.7094 25.213C19.7094 26.4448 20.7227 27.4581 21.9545 27.4581Z" fill="#5FF5FC"/>
<path d="M10.1528 24.6368L13.5304 24.6368C13.5304 26.4647 14.1463 28.233 15.2788 29.6436L15.7755 30.2595C12.6761 30.2595 10.1528 27.7363 10.1528 24.6368Z" fill="#5FF5FC"/>
<path d="M14.087 23.1271C6.33832 23.1271 0.0400391 21.9946 0.0400391 21.9946C2.16596 24.1206 6.23897 26.167 14.087 25.7895C21.2396 25.4319 28.6505 23.147 32.0083 22.1735C32.6242 21.9946 33.2997 22.0741 33.856 22.392C33.2997 22.0344 32.6242 21.3191 32.0083 21.4185C28.6704 21.8556 21.2595 23.1073 14.087 23.1271Z" fill="white"/>
<path d="M4.98696 19.7492C4.98696 20.0671 5.22538 20.3055 5.54327 20.3055C5.86116 20.3055 6.09959 20.0671 6.09959 19.7492C6.09959 19.4313 5.86116 19.1928 5.54327 19.1928C5.22538 19.1928 4.96709 19.4511 4.98696 19.7492Z" fill="white"/>
<path d="M10.5899 21.9678C10.7488 21.6102 10.7885 21.2128 10.8283 20.8552C10.8481 20.4777 10.868 20.1002 10.8879 19.7227C10.9077 19.3452 10.8879 18.9677 10.8283 18.5902C10.7687 18.2127 10.7488 17.8352 10.5899 17.4776C10.9475 17.716 11.1263 18.1332 11.2654 18.5107C11.3846 18.9081 11.4442 19.3254 11.4442 19.7227C11.4442 20.1201 11.3846 20.5373 11.2654 20.9347C11.1263 21.3122 10.9475 21.7294 10.5899 21.9678Z" fill="white"/>
<path d="M13.4111 21.9678C13.5701 21.6102 13.6098 21.2128 13.6496 20.8552C13.6694 20.4777 13.6893 20.1002 13.7092 19.7227C13.729 19.3452 13.7092 18.9677 13.6496 18.5902C13.59 18.2127 13.5701 17.8352 13.4111 17.4776C13.7688 17.716 13.9476 18.1332 14.0867 18.5107C14.2059 18.9081 14.2655 19.3253 14.2655 19.7227C14.2655 20.1201 14.2059 20.5373 14.0867 20.9347C13.9476 21.3122 13.7688 21.7294 13.4111 21.9678Z" fill="white"/>
</g>
<defs>
<clipPath id="clip0">
<rect width="31.0484" height="29.3064" fill="white" transform="translate(0 21.9546) rotate(-45)"/>
</clipPath>
</defs>
</svg>
