<svg width="35" height="16" viewBox="0 0 35 16" fill="none" xmlns="http://www.w3.org/2000/svg">
<path d="M6.25 0H10C15.875 0 20.4375 1.6 25.5938 4.48L30 7.04C30 10.816 26.1875 14.08 22.5 14.08H2.5C1.125 14.08 0 12.928 0 11.52V6.4C0 2.88 2.8125 0 6.25 0Z" fill="#BABFD6"/>
<path d="M13.125 10.24C8.96875 10.24 5.375 11.808 3.75 14.08H22.5C20.875 11.808 17.2813 10.24 13.125 10.24Z" fill="#EAEAEA"/>
<path d="M8.125 8.96001C8.47018 8.96001 8.75 8.67347 8.75 8.32001C8.75 7.96655 8.47018 7.68001 8.125 7.68001C7.77982 7.68001 7.5 7.96655 7.5 8.32001C7.5 8.67347 7.77982 8.96001 8.125 8.96001Z" fill="white"/>
<path d="M32.5 5.75999C31.125 5.75999 30 7.03999 30 7.03999C30 7.03999 31.125 8.31999 32.5 8.31999C33.875 8.31999 35 7.03999 35 7.03999C35 7.03999 33.875 5.75999 32.5 5.75999Z" fill="#5FF5FC"/>
<path d="M28.75 4.48C28.75 5.888 30 7.04 30 7.04C30 7.04 31.25 5.888 31.25 4.48C31.25 3.072 30 1.92 30 1.92C30 1.92 28.75 3.072 28.75 4.48Z" fill="#5FF5FC"/>
<path d="M15.3125 15.04C16.3438 16.096 18.125 16 18.125 16C18.125 16 18.2188 14.176 17.1875 13.12C16.1563 12.064 14.375 12.16 14.375 12.16C14.375 12.16 14.2813 13.984 15.3125 15.04Z" fill="#5FF5FC"/>
</svg>
